M48
;Layer_Color=6321
;FILE_FORMAT=4:4
METRIC,LZ
;TYPE=PLATED
T01F00S00C0.3048
T02F00S00C1.0000
T03F00S00C1.0160
T04F00S00C1.4000
%
T01
X-0043053Y0006477
X-0039751Y0006477
X-00410718Y00102616
X-0041656Y0012573
X-0042418Y0013589
X-00403352Y00138938
X-00436626Y00174498
X-00443484Y00170434
X-0036703Y0017399
X-00337312Y00181102
X-00313944Y00176022
X-00311404Y00185928
X-0028448Y00192024
X-00282702Y00178054
X-00281686Y00151384
X-00286766Y00137922
X-0030226Y00136398
X-00293878Y0010795
X-003175Y00104394
X-0032258Y00069342
X-00310388Y00056896
X-00324104Y0001651
X-0034671Y00016256
X-00369824Y00016256
X-0039116Y0006477
X-0034671Y0007493
X-0036195Y0009271
X-0038481Y0013335
X-0033909Y0013843
X-00339344Y0015367
X-00258759Y0014667
X-00253746Y00165608
X-0025273Y00184404
X-00227584Y00198628
X-0022352Y00159766
X-0023495Y001524
X-00201168Y001651
X-00180848Y00183896
X-00107442Y00193548
X-00078994Y0017145
X-00112014Y00004064
X-00162814Y00003302
X-00212598Y00004572
X-00219456Y00086614
X-0025654Y00082042
X-00246634Y00207772
X-0023622Y00201676
X-00222758Y00222504
X-00197612Y00218186
X-00191008Y00239776
X-00232918Y0024638
X-00241046Y00253492
X-00263144Y00238252
X-00268732Y00229108
X-0028829Y002032
X-00300736Y00203454
X-00333248Y00203454
X-00341884Y00237998
X-00355092Y0025146
X-003048Y00241046
X-00133604Y00202184
X-00105918Y0021209
X-0008636Y00201676
X-00008636Y0021336
X-00008636Y00230632
T02
X-00116578Y00103937
X-00086622Y00103937
X-00074368Y00123173
X-00080845Y00145042
X-001016Y001545
X-001016Y00127
X-00128832Y00123173
X-00122354Y00145042
T03
X-003937Y0022225
X-003683Y0022225
X-0017018Y0022606
X-0017018Y0025146
X-004191Y0022225
X-004445Y0022225
T04
X-001016Y00077
X-001441Y00172
X-000591Y00172
M30
