M48
;Layer_Color=6321
;FILE_FORMAT=4:4
METRIC,LZ
T07F00S00C5.0800
%
G90
G05
T07
G00X00005048Y-00035053
M15
G01X00009895Y-00033553
G01X00014347Y-0003112
G01X00018227Y-0002785
G01X00021379Y-00023875
G01X00023678Y-00019352
G01X00025033Y-00014463
G01X000254Y-0001016
G01X000254Y0026416
G01X00024893Y00269208
G01X00023393Y00274055
G01X0002096Y00278507
G01X0001769Y00282387
G01X00013715Y00285539
G01X00009192Y00287838
G01X00004303Y00289193
G01X0Y0028956
G01X-0046355Y0028956
G01X-00468598Y00289053
G01X-00473445Y00287553
G01X-00477897Y0028512
G01X-00481777Y0028185
G01X-00484929Y00277875
G01X-00487228Y00273352
G01X-00488583Y00268463
G01X-0048895Y0026416
G01X-0048895Y000762
G01X-00488443Y00071152
G01X-00486943Y00066305
G01X-0048451Y00061853
G01X-0048151Y00058239
G01X-00395151Y-00028121
G01X-00391223Y-00031332
G01X-00386735Y-00033698
G01X-00381866Y-00035126
G01X-0037719Y-0003556
G01X0Y-0003556
G01X00005048Y-00035053
M16
M17
M30
