G04*
G04 #@! TF.GenerationSoftware,Altium Limited,Altium Designer,25.8.1 (18)*
G04*
G04 Layer_Color=128*
%FSLAX44Y44*%
%MOMM*%
G71*
G04*
G04 #@! TF.SameCoordinates,3D41CA49-78D4-4FA0-B9B4-3656B9070CFD*
G04*
G04*
G04 #@! TF.FilePolarity,Positive*
G04*
G01*
G75*
%ADD15C,0.1270*%
D15*
X3293634Y2771110D02*
X3317256D01*
X3305445Y2759299D02*
Y2782921D01*
X3293634Y2821910D02*
X3317256D01*
X3305445Y2810099D02*
Y2833721D01*
X3325384Y2821910D02*
X3349006D01*
X3337195Y2810099D02*
Y2833721D01*
X3325384Y2771110D02*
X3349006D01*
X3337195Y2759299D02*
Y2782921D01*
X3281950Y2786350D02*
X3290840D01*
X3286395Y2781905D02*
Y2790795D01*
X3281950Y2806670D02*
X3290840D01*
X3286395Y2802225D02*
Y2811115D01*
X3332750Y2796510D02*
X3341640D01*
X3337195Y2792065D02*
Y2800955D01*
X3179969Y2800574D02*
X3190129D01*
X3185049Y2795494D02*
Y2805654D01*
X3204129Y2746514D02*
X3218129D01*
X3211129Y2739514D02*
Y2753514D01*
X3289129Y2746514D02*
X3303129D01*
X3296129Y2739514D02*
Y2753514D01*
X3246629Y2651514D02*
X3260629D01*
X3253629Y2644514D02*
Y2658514D01*
X3233651Y2678451D02*
X3243651D01*
X3238651Y2673451D02*
Y2683451D01*
X3221396Y2697687D02*
X3231396D01*
X3226396Y2692687D02*
Y2702686D01*
X3227874Y2719555D02*
X3237874D01*
X3232874Y2714556D02*
Y2724555D01*
X3248629Y2729014D02*
X3258629D01*
X3253629Y2724014D02*
Y2734014D01*
X3269384Y2719555D02*
X3279384D01*
X3274384Y2714556D02*
Y2724555D01*
X3275861Y2697687D02*
X3285861D01*
X3280861Y2692687D02*
Y2702686D01*
X3263607Y2678451D02*
X3273607D01*
X3268607Y2673451D02*
Y2683451D01*
X3248629Y2701514D02*
X3258629D01*
X3253629Y2696514D02*
Y2706514D01*
X2981849Y2796764D02*
X2992009D01*
X2986929Y2791684D02*
Y2801844D01*
X2956449Y2796764D02*
X2966609D01*
X2961529Y2791684D02*
Y2801844D01*
X2931049Y2796764D02*
X2941209D01*
X2936129Y2791684D02*
Y2801844D01*
X2905649Y2796764D02*
X2915809D01*
X2910729Y2791684D02*
Y2801844D01*
X3179969Y2825974D02*
X3190129D01*
X3185049Y2820894D02*
Y2831054D01*
X3051445Y2710912D02*
X3054493D01*
X3052969Y2709388D02*
Y2712436D01*
X3126121Y2773142D02*
X3129169D01*
X3127645Y2771618D02*
Y2774666D01*
X3084973Y2803622D02*
X3088021D01*
X3086497Y2802098D02*
Y2805146D01*
X3107071Y2782286D02*
X3110119D01*
X3108595Y2780762D02*
Y2783810D01*
X3118755Y2726914D02*
X3121803D01*
X3120279Y2725390D02*
Y2728438D01*
X3097165Y2656556D02*
X3100213D01*
X3098689Y2655032D02*
Y2658080D01*
X3241691Y2578578D02*
X3244739D01*
X3243215Y2577054D02*
Y2580102D01*
X3162697Y2814290D02*
X3165745D01*
X3164221Y2812766D02*
Y2815814D01*
X3267345Y2776190D02*
X3270393D01*
X3268869Y2774666D02*
Y2777714D01*
X3247787Y2786604D02*
X3250835D01*
X3249311Y2785080D02*
Y2788128D01*
X3274711Y2745964D02*
X3277759D01*
X3276235Y2744440D02*
Y2747488D01*
X3172857Y2758410D02*
X3175905D01*
X3174381Y2756886D02*
Y2759934D01*
X3246263Y2768062D02*
X3249311D01*
X3247787Y2766538D02*
Y2769586D01*
X3220101Y2776698D02*
X3223149D01*
X3221625Y2775174D02*
Y2778222D01*
X3345069Y2805146D02*
X3348117D01*
X3346593Y2803622D02*
Y2806670D01*
X3345069Y2787874D02*
X3348117D01*
X3346593Y2786350D02*
Y2789398D01*
X3071003Y2752568D02*
X3074051D01*
X3072527Y2751044D02*
Y2754092D01*
X3006995Y2590770D02*
X3010043D01*
X3008519Y2589246D02*
Y2592294D01*
X3014615Y2712944D02*
X3017663D01*
X3016139Y2711420D02*
Y2714468D01*
X3072019Y2725898D02*
X3075067D01*
X3073543Y2724374D02*
Y2727422D01*
X2910221Y2744948D02*
X2913269D01*
X2911745Y2743424D02*
Y2746472D01*
X2917079Y2749012D02*
X2920127D01*
X2918603Y2747488D02*
Y2750536D01*
X3094946Y2721184D02*
X3097994D01*
X3096470Y2719660D02*
Y2722708D01*
X2986675Y2748504D02*
X2989723D01*
X2988199Y2746980D02*
Y2750028D01*
X3152537Y2739614D02*
X3155585D01*
X3154061Y2738090D02*
Y2741138D01*
X3066939Y2712436D02*
X3069987D01*
X3068463Y2710912D02*
Y2713960D01*
X3069225Y2766538D02*
X3072273D01*
X3070749Y2765014D02*
Y2768062D01*
X2942987Y2677130D02*
X2946035D01*
X2944511Y2675606D02*
Y2678654D01*
X2950353Y2713452D02*
X2953401D01*
X2951877Y2711928D02*
Y2714976D01*
X3014361Y2728184D02*
X3017409D01*
X3015885Y2726660D02*
Y2729708D01*
X3059827Y2682464D02*
X3062875D01*
X3061351Y2680940D02*
Y2683988D01*
X3036205Y2678908D02*
X3039253D01*
X3037729Y2677384D02*
Y2680432D01*
X3016393Y2755616D02*
X3019441D01*
X3017917Y2754092D02*
Y2757140D01*
X3039761Y2750536D02*
X3042809D01*
X3041285Y2749012D02*
Y2752060D01*
X3042301Y2760442D02*
X3045349D01*
X3043825Y2758918D02*
Y2761966D01*
X3120787Y2820894D02*
X3123835D01*
X3122311Y2819370D02*
Y2822418D01*
X3117485Y2776190D02*
X3120533D01*
X3119009Y2774666D02*
Y2777714D01*
X3090561Y2812766D02*
X3093609D01*
X3092085Y2811242D02*
Y2814290D01*
X3052969Y2777968D02*
X3056017D01*
X3054493Y2776444D02*
Y2779492D01*
X3006995Y2649444D02*
X3010043D01*
X3008519Y2647920D02*
Y2650968D01*
X3130947Y2797018D02*
X3133995D01*
X3132471Y2795494D02*
Y2798542D01*
X3156093Y2792700D02*
X3159141D01*
X3157617Y2791176D02*
Y2794224D01*
X3099959Y2740122D02*
X3103007D01*
X3101483Y2738598D02*
Y2741646D01*
X2923175Y2639284D02*
X2926223D01*
X2924699Y2637760D02*
Y2640808D01*
X2956195Y2639284D02*
X2959243D01*
X2957719Y2637760D02*
Y2640808D01*
X2962545Y2639284D02*
X2965593D01*
X2964069Y2637760D02*
Y2640808D01*
X2991755Y2667224D02*
X2994803D01*
X2993279Y2665700D02*
Y2668748D01*
X2968895Y2707864D02*
X2971943D01*
X2970419Y2706340D02*
Y2709388D01*
X2937145Y2700244D02*
X2940193D01*
X2938669Y2698720D02*
Y2701768D01*
X2929525Y2710404D02*
X2932573D01*
X2931049Y2708880D02*
Y2711928D01*
X3065415Y2777714D02*
X3068463D01*
X3066939Y2776190D02*
Y2779238D01*
X3031125Y2643856D02*
X3034173D01*
X3032649Y2642332D02*
Y2645380D01*
X3043317Y2631410D02*
X3046365D01*
X3044841Y2629886D02*
Y2632934D01*
X2998613Y2825974D02*
X3001661D01*
X3000137Y2824450D02*
Y2827498D01*
X3020457Y2777968D02*
X3023505D01*
X3021981Y2776444D02*
Y2779492D01*
X3011821Y2812512D02*
X3014869D01*
X3013345Y2810988D02*
Y2814036D01*
X3100975Y2758918D02*
X3104023D01*
X3102499Y2757394D02*
Y2760442D01*
X3130185Y2734280D02*
X3133233D01*
X3131709Y2732756D02*
Y2735804D01*
X3112659Y2828006D02*
X3115707D01*
X3114183Y2826482D02*
Y2829530D01*
X3048905Y2815560D02*
X3051953D01*
X3050429Y2814036D02*
Y2817084D01*
X3134249Y2661128D02*
X3137297D01*
X3135773Y2659604D02*
Y2662652D01*
X3029601Y2591024D02*
X3032649D01*
X3031125Y2589500D02*
Y2592548D01*
X2983881Y2590770D02*
X2986929D01*
X2985405Y2589246D02*
Y2592294D01*
X3190891Y2577816D02*
X3193939D01*
X3192415Y2576292D02*
Y2579340D01*
X3141107Y2579086D02*
X3144155D01*
X3142631Y2577562D02*
Y2580610D01*
M02*
