G04*
G04 #@! TF.GenerationSoftware,Altium Limited,Altium Designer,25.8.1 (18)*
G04*
G04 Layer_Color=16777164*
%FSLAX44Y44*%
%MOMM*%
G71*
G04*
G04 #@! TF.SameCoordinates,3D41CA49-78D4-4FA0-B9B4-3656B9070CFD*
G04*
G04*
G04 #@! TF.FilePolarity,Positive*
G04*
G01*
G75*
%ADD12C,0.2032*%
%ADD73C,0.1000*%
G36*
X3056026Y2682411D02*
Y2682398D01*
Y2682370D01*
Y2682328D01*
Y2682259D01*
Y2682176D01*
Y2682079D01*
Y2681968D01*
Y2681857D01*
X3056012Y2681566D01*
Y2681247D01*
X3055998Y2680886D01*
X3055984Y2680511D01*
X3055970Y2680109D01*
X3055943Y2679707D01*
X3055929Y2679291D01*
X3055887Y2678889D01*
X3055859Y2678515D01*
X3055818Y2678154D01*
X3055762Y2677821D01*
X3055707Y2677530D01*
Y2677516D01*
X3055693Y2677461D01*
X3055679Y2677391D01*
X3055638Y2677294D01*
X3055610Y2677169D01*
X3055568Y2677031D01*
X3055513Y2676864D01*
X3055443Y2676698D01*
X3055277Y2676310D01*
X3055083Y2675907D01*
X3054833Y2675505D01*
X3054542Y2675117D01*
X3054528Y2675103D01*
X3054500Y2675075D01*
X3054459Y2675020D01*
X3054389Y2674950D01*
X3054306Y2674881D01*
X3054209Y2674784D01*
X3054084Y2674673D01*
X3053946Y2674562D01*
X3053793Y2674437D01*
X3053627Y2674312D01*
X3053446Y2674188D01*
X3053238Y2674049D01*
X3053030Y2673924D01*
X3052794Y2673799D01*
X3052559Y2673675D01*
X3052295Y2673564D01*
X3052281D01*
X3052226Y2673536D01*
X3052156Y2673508D01*
X3052046Y2673466D01*
X3051893Y2673425D01*
X3051727Y2673383D01*
X3051532Y2673328D01*
X3051310Y2673272D01*
X3051047Y2673217D01*
X3050770Y2673161D01*
X3050464Y2673120D01*
X3050146Y2673078D01*
X3049785Y2673036D01*
X3049424Y2673009D01*
X3049022Y2672995D01*
X3048606Y2672981D01*
X3048343D01*
X3048148Y2672995D01*
X3047927D01*
X3047663Y2673009D01*
X3047372Y2673036D01*
X3047053Y2673064D01*
X3046720Y2673092D01*
X3046373Y2673134D01*
X3045680Y2673245D01*
X3045347Y2673314D01*
X3045014Y2673397D01*
X3044709Y2673494D01*
X3044432Y2673605D01*
X3044418Y2673619D01*
X3044376Y2673633D01*
X3044293Y2673675D01*
X3044196Y2673716D01*
X3044085Y2673785D01*
X3043947Y2673855D01*
X3043794Y2673952D01*
X3043627Y2674049D01*
X3043267Y2674285D01*
X3042892Y2674576D01*
X3042518Y2674895D01*
X3042185Y2675255D01*
X3042171Y2675269D01*
X3042144Y2675297D01*
X3042102Y2675352D01*
X3042060Y2675436D01*
X3041991Y2675519D01*
X3041908Y2675630D01*
X3041825Y2675769D01*
X3041741Y2675907D01*
X3041561Y2676226D01*
X3041381Y2676587D01*
X3041228Y2676975D01*
X3041104Y2677391D01*
Y2677405D01*
X3041089Y2677474D01*
X3041076Y2677571D01*
X3041048Y2677696D01*
X3041020Y2677877D01*
X3040979Y2678085D01*
X3040951Y2678334D01*
X3040923Y2678625D01*
X3040881Y2678944D01*
X3040854Y2679305D01*
X3040812Y2679707D01*
X3040784Y2680137D01*
X3040771Y2680609D01*
X3040743Y2681122D01*
X3040729Y2681677D01*
Y2682259D01*
Y2692508D01*
X3044598D01*
Y2682107D01*
Y2682079D01*
Y2681996D01*
Y2681871D01*
Y2681704D01*
Y2681510D01*
X3044612Y2681288D01*
Y2681039D01*
Y2680775D01*
X3044626Y2680234D01*
X3044640Y2679957D01*
X3044654Y2679707D01*
X3044668Y2679458D01*
X3044695Y2679236D01*
X3044709Y2679042D01*
X3044737Y2678889D01*
Y2678875D01*
X3044751Y2678834D01*
X3044765Y2678778D01*
X3044792Y2678695D01*
X3044820Y2678598D01*
X3044862Y2678473D01*
X3044973Y2678210D01*
X3045139Y2677904D01*
X3045333Y2677599D01*
X3045458Y2677447D01*
X3045597Y2677294D01*
X3045749Y2677142D01*
X3045916Y2677003D01*
X3045930Y2676989D01*
X3045957Y2676975D01*
X3046013Y2676934D01*
X3046082Y2676892D01*
X3046179Y2676837D01*
X3046304Y2676781D01*
X3046429Y2676712D01*
X3046595Y2676656D01*
X3046762Y2676587D01*
X3046956Y2676518D01*
X3047164Y2676462D01*
X3047400Y2676407D01*
X3047649Y2676365D01*
X3047899Y2676324D01*
X3048190Y2676310D01*
X3048481Y2676295D01*
X3048634D01*
X3048759Y2676310D01*
X3048884D01*
X3049050Y2676337D01*
X3049216Y2676351D01*
X3049411Y2676379D01*
X3049813Y2676462D01*
X3050229Y2676573D01*
X3050617Y2676740D01*
X3050797Y2676850D01*
X3050964Y2676961D01*
X3050978Y2676975D01*
X3051005Y2676989D01*
X3051047Y2677031D01*
X3051103Y2677086D01*
X3051241Y2677225D01*
X3051407Y2677419D01*
X3051588Y2677668D01*
X3051754Y2677946D01*
X3051879Y2678265D01*
X3051935Y2678431D01*
X3051976Y2678612D01*
Y2678625D01*
X3051990Y2678653D01*
Y2678723D01*
X3052004Y2678806D01*
X3052018Y2678917D01*
X3052032Y2679042D01*
X3052046Y2679208D01*
X3052073Y2679388D01*
X3052087Y2679610D01*
X3052101Y2679846D01*
X3052115Y2680109D01*
X3052129Y2680415D01*
X3052143Y2680734D01*
Y2681094D01*
X3052156Y2681469D01*
Y2681884D01*
Y2692508D01*
X3056026D01*
Y2682411D01*
D02*
G37*
G36*
X3070074Y2680387D02*
X3072460D01*
Y2677169D01*
X3070074D01*
Y2673314D01*
X3066510D01*
Y2677169D01*
X3058661D01*
Y2680373D01*
X3066982Y2692577D01*
X3070074D01*
Y2680387D01*
D02*
G37*
%LPC*%
G36*
X3066510Y2686933D02*
X3062100Y2680387D01*
X3066510D01*
Y2686933D01*
D02*
G37*
%LPD*%
D12*
X3038479Y2671314D02*
X3100479D01*
Y2706314D01*
X3038479D02*
X3100479D01*
X3038479Y2671314D02*
Y2706314D01*
D73*
X2974709Y2712894D02*
G03*
X2974709Y2712894I-5000J0D01*
G01*
X3132429Y2732124D02*
G03*
X3132429Y2732124I-5000J0D01*
G01*
X3001769Y2599066D02*
X3015269D01*
X3001769Y2620066D02*
X3015269D01*
X3001769Y2599066D02*
Y2620066D01*
X3015269Y2599066D02*
Y2620066D01*
X3091685Y2627006D02*
Y2648006D01*
X3105185Y2627006D02*
Y2648006D01*
X3091685Y2627006D02*
X3105185D01*
X3091685Y2648006D02*
X3105185D01*
X2940081Y2769154D02*
X2957581D01*
X2940081Y2778654D02*
X2957581D01*
Y2769154D02*
Y2778654D01*
X2940081Y2769154D02*
Y2778654D01*
X2986529Y2675774D02*
X3000029D01*
X2986529Y2696774D02*
X3000029D01*
X2986529Y2675774D02*
Y2696774D01*
X3000029Y2675774D02*
Y2696774D01*
X3042945Y2763562D02*
Y2772562D01*
X3059945Y2763562D02*
Y2772562D01*
X3042945D02*
X3059945D01*
X3042945Y2763562D02*
X3059945D01*
X3039675Y2733626D02*
Y2747126D01*
X3060675Y2733626D02*
Y2747126D01*
X3039675D02*
X3060675D01*
X3039675Y2733626D02*
X3060675D01*
X3019631Y2649826D02*
Y2665826D01*
X3011631Y2649826D02*
Y2665826D01*
X3019631D01*
X3011631Y2649826D02*
X3019631D01*
X3024375Y2599066D02*
X3037875D01*
X3024375Y2620066D02*
X3037875D01*
X3024375Y2599066D02*
Y2620066D01*
X3037875Y2599066D02*
Y2620066D01*
X2903709Y2665894D02*
Y2721894D01*
X2978709Y2665894D02*
Y2721894D01*
X2903709Y2665894D02*
X2978709D01*
X2903709Y2721894D02*
X2978709D01*
X2990929Y2757014D02*
Y2773014D01*
X2982929Y2757014D02*
Y2773014D01*
X2990929D01*
X2982929Y2757014D02*
X2990929D01*
X2940829Y2749584D02*
X2956829D01*
X2940829Y2757584D02*
X2956829D01*
Y2749584D02*
Y2757584D01*
X2940829Y2749584D02*
Y2757584D01*
X3140219Y2804194D02*
X3156219D01*
X3140219Y2812194D02*
X3156219D01*
Y2804194D02*
Y2812194D01*
X3140219Y2804194D02*
Y2812194D01*
X3074695Y2707936D02*
X3091695D01*
X3074695Y2716936D02*
X3091695D01*
Y2707936D02*
Y2716936D01*
X3074695Y2707936D02*
Y2716936D01*
X3005599Y2791112D02*
X3021599D01*
X3005599Y2783112D02*
X3021599D01*
X3005599D02*
Y2791112D01*
X3021599Y2783112D02*
Y2791112D01*
X3009399Y2708444D02*
Y2717444D01*
X2992399Y2708444D02*
Y2717444D01*
Y2708444D02*
X3009399D01*
X2992399Y2717444D02*
X3009399D01*
X3261489Y2591644D02*
Y2605644D01*
X3291489Y2591644D02*
Y2605644D01*
X3261489Y2591644D02*
X3291489D01*
X3261489Y2605644D02*
X3291489D01*
X3140219Y2821974D02*
Y2829974D01*
X3156219Y2821974D02*
Y2829974D01*
X3140219D02*
X3156219D01*
X3140219Y2821974D02*
X3156219D01*
X3091429Y2789124D02*
X3136429D01*
X3091429Y2723124D02*
X3136429D01*
X3091429D02*
Y2789124D01*
X3136429Y2723124D02*
Y2789124D01*
X3145819Y2676374D02*
X3163319D01*
X3145819Y2645374D02*
X3163319D01*
X3145819D02*
Y2676374D01*
X3163319Y2645374D02*
Y2676374D01*
X3145057Y2715490D02*
X3162557D01*
X3145057Y2684490D02*
X3162557D01*
X3145057D02*
Y2715490D01*
X3162557Y2684490D02*
Y2715490D01*
X3102749Y2797164D02*
Y2828164D01*
X3120249Y2797164D02*
Y2828164D01*
X3102749D02*
X3120249D01*
X3102749Y2797164D02*
X3120249D01*
X3117549Y2706974D02*
X3125549D01*
X3117549Y2690974D02*
X3125549D01*
Y2706974D01*
X3117549Y2690974D02*
Y2706974D01*
X3060217Y2666390D02*
X3077217D01*
X3060217Y2657390D02*
X3077217D01*
X3060217D02*
Y2666390D01*
X3077217Y2657390D02*
Y2666390D01*
X3084139Y2803504D02*
Y2820504D01*
X3075139Y2803504D02*
Y2820504D01*
X3084139D01*
X3075139Y2803504D02*
X3084139D01*
X3028395Y2650080D02*
Y2666080D01*
X3036395Y2650080D02*
Y2666080D01*
X3028395Y2650080D02*
X3036395D01*
X3028395Y2666080D02*
X3036395D01*
X3044969Y2826164D02*
X3060969D01*
X3044969Y2818164D02*
X3060969D01*
X3044969D02*
Y2826164D01*
X3060969Y2818164D02*
Y2826164D01*
X3044969Y2807114D02*
X3060969D01*
X3044969Y2799114D02*
X3060969D01*
X3044969D02*
Y2807114D01*
X3060969Y2799114D02*
Y2807114D01*
X3004835Y2628680D02*
Y2636680D01*
X2988835Y2628680D02*
Y2636680D01*
Y2628680D02*
X3004835D01*
X2988835Y2636680D02*
X3004835D01*
X2978909Y2599320D02*
X2992409D01*
X2978909Y2620320D02*
X2992409D01*
X2978909Y2599320D02*
Y2620320D01*
X2992409Y2599320D02*
Y2620320D01*
X2906539Y2770284D02*
X2922539D01*
X2906539Y2762284D02*
X2922539D01*
X2906539D02*
Y2770284D01*
X2922539Y2762284D02*
Y2770284D01*
X3001789Y2744504D02*
X3017789D01*
X3001789Y2752504D02*
X3017789D01*
Y2744504D02*
Y2752504D01*
X3001789Y2744504D02*
Y2752504D01*
X3009399Y2723684D02*
Y2732684D01*
X2992399Y2723684D02*
Y2732684D01*
Y2723684D02*
X3009399D01*
X2992399Y2732684D02*
X3009399D01*
M02*
