G04*
G04 #@! TF.GenerationSoftware,Altium Limited,Altium Designer,25.8.1 (18)*
G04*
G04 Layer_Color=255*
%FSLAX44Y44*%
%MOMM*%
G71*
G04*
G04 #@! TF.SameCoordinates,3D41CA49-78D4-4FA0-B9B4-3656B9070CFD*
G04*
G04*
G04 #@! TF.FilePolarity,Positive*
G04*
G01*
G75*
%ADD18R,1.4500X0.3000*%
G04:AMPARAMS|DCode=19|XSize=2.2mm|YSize=1.4mm|CornerRadius=0.35mm|HoleSize=0mm|Usage=FLASHONLY|Rotation=270.000|XOffset=0mm|YOffset=0mm|HoleType=Round|Shape=RoundedRectangle|*
%AMROUNDEDRECTD19*
21,1,2.2000,0.7000,0,0,270.0*
21,1,1.5000,1.4000,0,0,270.0*
1,1,0.7000,-0.3500,-0.7500*
1,1,0.7000,-0.3500,0.7500*
1,1,0.7000,0.3500,0.7500*
1,1,0.7000,0.3500,-0.7500*
%
%ADD19ROUNDEDRECTD19*%
%ADD20R,1.4000X2.2000*%
%ADD21R,1.4000X1.2500*%
%ADD22R,0.8000X0.9000*%
%ADD23R,0.9500X0.9000*%
%ADD24R,1.2500X1.4000*%
%ADD25R,0.8500X0.7000*%
%ADD26R,0.3750X1.6500*%
%ADD27R,0.7000X0.8500*%
%ADD28R,0.8000X2.7000*%
%ADD29R,0.8000X0.9000*%
%ADD30R,1.4000X0.4500*%
%ADD31R,1.2000X0.6000*%
%ADD32R,0.8500X0.6000*%
%ADD33R,0.9000X0.9500*%
%ADD58C,1.0000*%
%ADD59C,0.8890*%
%ADD64C,2.3368*%
%ADD65C,0.8636*%
%ADD66O,2.4130X1.5240*%
%ADD67C,1.5000*%
%ADD68O,1.5240X2.4130*%
D18*
X3090729Y2678814D02*
D03*
Y2683814D02*
D03*
Y2688814D02*
D03*
Y2693814D02*
D03*
Y2698814D02*
D03*
X3048229Y2678814D02*
D03*
Y2683814D02*
D03*
Y2688814D02*
D03*
Y2693814D02*
D03*
Y2698814D02*
D03*
D19*
X3233309Y2610834D02*
D03*
X3131709D02*
D03*
X3182509D02*
D03*
D20*
X3233309Y2578834D02*
D03*
X3131709D02*
D03*
X3182509D02*
D03*
D21*
X3008519Y2600816D02*
D03*
Y2618316D02*
D03*
X3098435Y2628756D02*
D03*
Y2646256D02*
D03*
X2993279Y2677524D02*
D03*
Y2695024D02*
D03*
X3031125Y2600816D02*
D03*
Y2618316D02*
D03*
X2985659Y2601070D02*
D03*
Y2618570D02*
D03*
D22*
X2956331Y2773904D02*
D03*
X2941331D02*
D03*
D23*
X3043695Y2768062D02*
D03*
X3059195D02*
D03*
X3090945Y2712436D02*
D03*
X3075445D02*
D03*
X3008649Y2712944D02*
D03*
X2993149D02*
D03*
X3060967Y2661890D02*
D03*
X3076467D02*
D03*
X3008649Y2728184D02*
D03*
X2993149D02*
D03*
D24*
X3041425Y2740376D02*
D03*
X3058925D02*
D03*
D25*
X3015631Y2666076D02*
D03*
Y2649576D02*
D03*
X2986929Y2773264D02*
D03*
Y2756764D02*
D03*
X3121549Y2707224D02*
D03*
Y2690724D02*
D03*
X3032395Y2649830D02*
D03*
Y2666330D02*
D03*
D26*
X2911959Y2657644D02*
D03*
X2918459D02*
D03*
X2924959D02*
D03*
X2931459D02*
D03*
X2937959D02*
D03*
X2944459D02*
D03*
X2950959D02*
D03*
X2957459D02*
D03*
X2963959D02*
D03*
X2970459D02*
D03*
X2911959Y2730144D02*
D03*
X2918459D02*
D03*
X2924959D02*
D03*
X2931459D02*
D03*
X2937959D02*
D03*
X2944459D02*
D03*
X2950959D02*
D03*
X2957459D02*
D03*
X2963959D02*
D03*
X2970459D02*
D03*
D27*
X2957079Y2753584D02*
D03*
X2940579D02*
D03*
X3156469Y2808194D02*
D03*
X3139969D02*
D03*
X3005349Y2787112D02*
D03*
X3021849D02*
D03*
X3139969Y2825974D02*
D03*
X3156469D02*
D03*
X3044719Y2822164D02*
D03*
X3061219D02*
D03*
X3044719Y2803114D02*
D03*
X3061219D02*
D03*
X3005085Y2632680D02*
D03*
X2988585D02*
D03*
X2906289Y2766284D02*
D03*
X2922789D02*
D03*
X3018039Y2748504D02*
D03*
X3001539D02*
D03*
D28*
X3055939Y2592294D02*
D03*
X3077939D02*
D03*
D29*
X3276489Y2588644D02*
D03*
X3267339Y2608644D02*
D03*
X3285639D02*
D03*
D30*
X3084429Y2785374D02*
D03*
Y2778874D02*
D03*
Y2772374D02*
D03*
Y2765874D02*
D03*
Y2759374D02*
D03*
Y2752874D02*
D03*
Y2746374D02*
D03*
Y2739874D02*
D03*
Y2733374D02*
D03*
Y2726874D02*
D03*
X3143429Y2785374D02*
D03*
Y2778874D02*
D03*
Y2772374D02*
D03*
Y2765874D02*
D03*
Y2759374D02*
D03*
Y2752874D02*
D03*
Y2746374D02*
D03*
Y2739874D02*
D03*
Y2733374D02*
D03*
Y2726874D02*
D03*
D31*
X3145569Y2660874D02*
D03*
X3163569Y2670374D02*
D03*
Y2651374D02*
D03*
X3144807Y2699990D02*
D03*
X3162807Y2709490D02*
D03*
Y2690490D02*
D03*
X3102499Y2822164D02*
D03*
Y2803164D02*
D03*
X3120499Y2812664D02*
D03*
D32*
X3079443Y2638116D02*
D03*
Y2628616D02*
D03*
Y2619116D02*
D03*
X3054943D02*
D03*
Y2628616D02*
D03*
Y2638116D02*
D03*
X3028479Y2822164D02*
D03*
Y2803164D02*
D03*
X3005979D02*
D03*
Y2812664D02*
D03*
Y2822164D02*
D03*
D33*
X3079639Y2819754D02*
D03*
Y2804254D02*
D03*
D58*
X3247279Y2815814D02*
D03*
X2955179Y2618964D02*
D03*
D59*
X3053223Y2755108D02*
D03*
X3184287Y2782032D02*
D03*
D64*
X3305445Y2771110D02*
D03*
Y2821910D02*
D03*
X3337195D02*
D03*
Y2771110D02*
D03*
D65*
X3286395Y2786350D02*
D03*
Y2806670D02*
D03*
X3337195Y2796510D02*
D03*
D66*
X3185049Y2800574D02*
D03*
Y2825974D02*
D03*
D67*
X3238651Y2678451D02*
D03*
X3226396Y2697687D02*
D03*
X3232874Y2719555D02*
D03*
X3253629Y2729014D02*
D03*
X3274384Y2719555D02*
D03*
X3280861Y2697687D02*
D03*
X3268607Y2678451D02*
D03*
X3253629Y2701514D02*
D03*
D68*
X2986929Y2796764D02*
D03*
X2961529D02*
D03*
X2936129D02*
D03*
X2910729D02*
D03*
M02*
