G04*
G04 #@! TF.GenerationSoftware,Altium Limited,Altium Designer,25.8.1 (18)*
G04*
G04 Layer_Color=13813960*
%FSLAX44Y44*%
%MOMM*%
G71*
G04*
G04 #@! TF.SameCoordinates,3D41CA49-78D4-4FA0-B9B4-3656B9070CFD*
G04*
G04*
G04 #@! TF.FilePolarity,Positive*
G04*
G01*
G75*
%ADD16C,0.2000*%
G36*
X3333286Y2600349D02*
X3319000D01*
Y2609256D01*
X3323321D01*
Y2604670D01*
X3329053D01*
Y2618957D01*
X3333286D01*
Y2600349D01*
D02*
G37*
G36*
X3299422Y2604670D02*
X3304801D01*
Y2609256D01*
X3309387D01*
Y2600349D01*
X3295100D01*
Y2618957D01*
X3299422D01*
Y2604670D01*
D02*
G37*
G36*
X3329053Y2590031D02*
X3333639D01*
Y2581124D01*
X3328347D01*
Y2576450D01*
X3323321D01*
Y2571423D01*
X3318647D01*
Y2566132D01*
X3314061D01*
Y2571071D01*
X3309740D01*
Y2575745D01*
X3304801D01*
Y2581124D01*
X3294748D01*
Y2590031D01*
X3299774D01*
Y2595410D01*
X3329053D01*
Y2590031D01*
D02*
G37*
G36*
X2962628Y2829449D02*
X2965154D01*
Y2827747D01*
X2962628D01*
Y2825200D01*
X2960883D01*
Y2827747D01*
X2958357D01*
Y2829449D01*
X2960883D01*
Y2832003D01*
X2962628D01*
Y2829449D01*
D02*
G37*
G36*
X2958857Y2823370D02*
X2959061Y2823244D01*
X2959250Y2823117D01*
X2959420Y2823004D01*
X2959581Y2822899D01*
X2959722Y2822801D01*
X2959856Y2822709D01*
X2959968Y2822625D01*
X2960067Y2822547D01*
X2960158Y2822477D01*
X2960236Y2822420D01*
X2960299Y2822371D01*
X2960348Y2822329D01*
X2960383Y2822294D01*
X2960411Y2822273D01*
X2960426Y2822259D01*
X2960433Y2822252D01*
X2960594Y2822090D01*
X2960749Y2821914D01*
X2960890Y2821738D01*
X2961017Y2821569D01*
X2961066Y2821492D01*
X2961115Y2821422D01*
X2961157Y2821358D01*
X2961193Y2821302D01*
X2961221Y2821259D01*
X2961242Y2821224D01*
X2961249Y2821203D01*
X2961256Y2821196D01*
X2961298Y2821429D01*
X2961347Y2821647D01*
X2961404Y2821851D01*
X2961474Y2822041D01*
X2961544Y2822216D01*
X2961622Y2822371D01*
X2961692Y2822512D01*
X2961769Y2822646D01*
X2961847Y2822758D01*
X2961917Y2822857D01*
X2961981Y2822934D01*
X2962037Y2823004D01*
X2962086Y2823054D01*
X2962121Y2823096D01*
X2962142Y2823117D01*
X2962149Y2823124D01*
X2962290Y2823237D01*
X2962431Y2823335D01*
X2962585Y2823427D01*
X2962733Y2823497D01*
X2962888Y2823560D01*
X2963036Y2823617D01*
X2963184Y2823659D01*
X2963324Y2823694D01*
X2963458Y2823715D01*
X2963578Y2823736D01*
X2963690Y2823750D01*
X2963782Y2823764D01*
X2963859D01*
X2963915Y2823771D01*
X2963951D01*
X2963965D01*
X2964126Y2823764D01*
X2964274Y2823750D01*
X2964422Y2823729D01*
X2964563Y2823708D01*
X2964696Y2823673D01*
X2964823Y2823638D01*
X2964943Y2823596D01*
X2965048Y2823560D01*
X2965146Y2823518D01*
X2965238Y2823476D01*
X2965309Y2823441D01*
X2965372Y2823412D01*
X2965421Y2823384D01*
X2965463Y2823363D01*
X2965484Y2823349D01*
X2965491Y2823342D01*
X2965611Y2823258D01*
X2965724Y2823174D01*
X2965829Y2823082D01*
X2965921Y2822990D01*
X2966005Y2822892D01*
X2966082Y2822801D01*
X2966153Y2822709D01*
X2966216Y2822617D01*
X2966265Y2822533D01*
X2966307Y2822456D01*
X2966350Y2822385D01*
X2966378Y2822329D01*
X2966399Y2822280D01*
X2966413Y2822238D01*
X2966427Y2822216D01*
Y2822209D01*
X2966476Y2822069D01*
X2966519Y2821907D01*
X2966554Y2821738D01*
X2966582Y2821562D01*
X2966631Y2821182D01*
X2966645Y2820999D01*
X2966659Y2820816D01*
X2966673Y2820641D01*
X2966680Y2820479D01*
X2966688Y2820331D01*
Y2820197D01*
X2966695Y2820092D01*
Y2815814D01*
X2956957D01*
Y2817777D01*
X2961024D01*
Y2818290D01*
X2961017Y2818410D01*
Y2818516D01*
X2961010Y2818607D01*
X2960995Y2818699D01*
X2960988Y2818783D01*
X2960981Y2818853D01*
X2960967Y2818917D01*
X2960960Y2818973D01*
X2960946Y2819022D01*
X2960939Y2819065D01*
X2960932Y2819100D01*
X2960925Y2819121D01*
X2960918Y2819142D01*
X2960911Y2819156D01*
X2960862Y2819276D01*
X2960799Y2819381D01*
X2960735Y2819480D01*
X2960665Y2819571D01*
X2960602Y2819641D01*
X2960552Y2819698D01*
X2960517Y2819733D01*
X2960503Y2819747D01*
X2960440Y2819803D01*
X2960355Y2819874D01*
X2960264Y2819951D01*
X2960158Y2820028D01*
X2960038Y2820113D01*
X2959919Y2820197D01*
X2959680Y2820373D01*
X2959560Y2820457D01*
X2959448Y2820535D01*
X2959349Y2820605D01*
X2959258Y2820669D01*
X2959180Y2820718D01*
X2959124Y2820753D01*
X2959089Y2820781D01*
X2959075Y2820788D01*
X2956957Y2822202D01*
Y2824559D01*
X2958857Y2823370D01*
D02*
G37*
G36*
X2937542Y2825658D02*
X2935677D01*
Y2829323D01*
X2937542D01*
Y2825658D01*
D02*
G37*
G36*
X2934980Y2823624D02*
X2935185Y2823498D01*
X2935374Y2823371D01*
X2935544Y2823258D01*
X2935705Y2823153D01*
X2935846Y2823055D01*
X2935980Y2822963D01*
X2936092Y2822879D01*
X2936191Y2822801D01*
X2936282Y2822731D01*
X2936360Y2822675D01*
X2936423Y2822625D01*
X2936472Y2822583D01*
X2936507Y2822548D01*
X2936536Y2822527D01*
X2936550Y2822513D01*
X2936557Y2822506D01*
X2936718Y2822344D01*
X2936873Y2822168D01*
X2937014Y2821992D01*
X2937141Y2821823D01*
X2937190Y2821746D01*
X2937239Y2821675D01*
X2937281Y2821612D01*
X2937317Y2821556D01*
X2937345Y2821514D01*
X2937366Y2821479D01*
X2937373Y2821457D01*
X2937380Y2821450D01*
X2937422Y2821682D01*
X2937471Y2821901D01*
X2937527Y2822104D01*
X2937598Y2822295D01*
X2937668Y2822470D01*
X2937746Y2822625D01*
X2937816Y2822766D01*
X2937893Y2822900D01*
X2937971Y2823012D01*
X2938041Y2823111D01*
X2938105Y2823188D01*
X2938161Y2823258D01*
X2938210Y2823308D01*
X2938245Y2823350D01*
X2938266Y2823371D01*
X2938273Y2823378D01*
X2938414Y2823491D01*
X2938555Y2823589D01*
X2938710Y2823681D01*
X2938857Y2823751D01*
X2939012Y2823814D01*
X2939160Y2823871D01*
X2939308Y2823913D01*
X2939449Y2823948D01*
X2939582Y2823969D01*
X2939702Y2823990D01*
X2939814Y2824004D01*
X2939906Y2824018D01*
X2939983D01*
X2940039Y2824025D01*
X2940074D01*
X2940089D01*
X2940251Y2824018D01*
X2940398Y2824004D01*
X2940546Y2823983D01*
X2940687Y2823962D01*
X2940820Y2823927D01*
X2940947Y2823892D01*
X2941067Y2823849D01*
X2941172Y2823814D01*
X2941271Y2823772D01*
X2941362Y2823730D01*
X2941432Y2823695D01*
X2941496Y2823667D01*
X2941545Y2823638D01*
X2941587Y2823617D01*
X2941608Y2823603D01*
X2941615Y2823596D01*
X2941735Y2823512D01*
X2941848Y2823427D01*
X2941953Y2823336D01*
X2942045Y2823244D01*
X2942129Y2823146D01*
X2942206Y2823055D01*
X2942277Y2822963D01*
X2942340Y2822871D01*
X2942389Y2822787D01*
X2942432Y2822710D01*
X2942474Y2822639D01*
X2942502Y2822583D01*
X2942523Y2822534D01*
X2942537Y2822491D01*
X2942551Y2822470D01*
Y2822463D01*
X2942600Y2822323D01*
X2942643Y2822161D01*
X2942678Y2821992D01*
X2942706Y2821816D01*
X2942755Y2821436D01*
X2942769Y2821253D01*
X2942783Y2821070D01*
X2942798Y2820894D01*
X2942804Y2820733D01*
X2942812Y2820585D01*
Y2820451D01*
X2942819Y2820346D01*
Y2816068D01*
X2933081D01*
Y2818031D01*
X2937148D01*
Y2818545D01*
X2937141Y2818664D01*
Y2818770D01*
X2937133Y2818861D01*
X2937119Y2818953D01*
X2937112Y2819037D01*
X2937105Y2819107D01*
X2937091Y2819171D01*
X2937084Y2819227D01*
X2937070Y2819276D01*
X2937063Y2819319D01*
X2937056Y2819354D01*
X2937049Y2819375D01*
X2937042Y2819396D01*
X2937035Y2819410D01*
X2936986Y2819529D01*
X2936923Y2819635D01*
X2936859Y2819734D01*
X2936789Y2819825D01*
X2936725Y2819895D01*
X2936676Y2819952D01*
X2936641Y2819987D01*
X2936627Y2820001D01*
X2936564Y2820057D01*
X2936479Y2820128D01*
X2936388Y2820205D01*
X2936282Y2820282D01*
X2936163Y2820367D01*
X2936043Y2820451D01*
X2935804Y2820627D01*
X2935684Y2820712D01*
X2935572Y2820789D01*
X2935473Y2820859D01*
X2935382Y2820923D01*
X2935304Y2820972D01*
X2935248Y2821007D01*
X2935213Y2821035D01*
X2935199Y2821042D01*
X2933081Y2822456D01*
Y2824814D01*
X2934980Y2823624D01*
D02*
G37*
G36*
X2989298Y2827429D02*
X2991824D01*
Y2825726D01*
X2989298D01*
Y2823179D01*
X2987553D01*
Y2825726D01*
X2985027D01*
Y2827429D01*
X2987553D01*
Y2829983D01*
X2989298D01*
Y2827429D01*
D02*
G37*
G36*
X2993365Y2815306D02*
X2983627D01*
Y2817269D01*
X2987764D01*
Y2821335D01*
X2989410D01*
Y2817269D01*
X2991718D01*
Y2821983D01*
X2993365D01*
Y2815306D01*
D02*
G37*
G36*
X2910363Y2823891D02*
X2908499D01*
Y2827557D01*
X2910363D01*
Y2823891D01*
D02*
G37*
G36*
X2915641Y2815814D02*
X2905903D01*
Y2817777D01*
X2910040D01*
Y2821844D01*
X2911686D01*
Y2817777D01*
X2913994D01*
Y2822491D01*
X2915641D01*
Y2815814D01*
D02*
G37*
G36*
X3066580Y2724778D02*
X3066815Y2724484D01*
X3067109Y2724073D01*
X3067462Y2723485D01*
X3067873Y2722780D01*
X3068284Y2722016D01*
X3069048Y2720370D01*
X3069872Y2718724D01*
X3070165Y2717960D01*
X3070518Y2717255D01*
X3070753Y2716667D01*
X3070929Y2716256D01*
X3071047Y2715962D01*
X3071106Y2715844D01*
Y2715609D01*
X3025143D01*
X3024967Y2715727D01*
X3024732Y2715962D01*
X3024438Y2716432D01*
X3024085Y2716961D01*
X3023733Y2717607D01*
X3023321Y2718313D01*
X3022498Y2719900D01*
X3021675Y2721487D01*
X3021323Y2722192D01*
X3021029Y2722839D01*
X3020735Y2723426D01*
X3020559Y2723838D01*
X3020441Y2724073D01*
X3020382Y2724190D01*
Y2724425D01*
X3020441Y2724602D01*
X3020617Y2724837D01*
X3020794Y2724896D01*
X3066345D01*
X3066580Y2724778D01*
D02*
G37*
G36*
X3074515Y2708850D02*
X3074750Y2708556D01*
X3075044Y2708145D01*
X3075338Y2707557D01*
X3075749Y2706910D01*
X3076160Y2706205D01*
X3076983Y2704618D01*
X3077806Y2703090D01*
X3078159Y2702326D01*
X3078511Y2701738D01*
X3078747Y2701151D01*
X3078982Y2700739D01*
X3079099Y2700504D01*
X3079158Y2700386D01*
Y2700151D01*
X3079099Y2699857D01*
X3078923Y2699740D01*
X3078747Y2699681D01*
X3033254D01*
X3033019Y2699857D01*
X3032725Y2700210D01*
X3032372Y2700739D01*
X3032020Y2701327D01*
X3031609Y2701973D01*
X3031197Y2702737D01*
X3030316Y2704324D01*
X3029551Y2705852D01*
X3029199Y2706558D01*
X3028905Y2707204D01*
X3028611Y2707733D01*
X3028434Y2708145D01*
X3028317Y2708380D01*
X3028258Y2708497D01*
X3028317Y2708732D01*
X3028493Y2708909D01*
X3028670Y2708968D01*
X3074397D01*
X3074515Y2708850D01*
D02*
G37*
G36*
X3156154Y2744292D02*
X3156271Y2744174D01*
X3156389Y2743939D01*
X3156566Y2743645D01*
X3156977Y2742940D01*
X3157388Y2742058D01*
X3157917Y2741000D01*
X3158446Y2739883D01*
X3159034Y2738708D01*
X3159563Y2737474D01*
X3160092Y2736239D01*
X3160621Y2735123D01*
X3161150Y2734006D01*
X3161561Y2733065D01*
X3161914Y2732243D01*
X3162208Y2731596D01*
X3162325Y2731361D01*
X3162384Y2731185D01*
X3162443Y2731126D01*
Y2731067D01*
X3162384Y2730773D01*
X3162208Y2730656D01*
X3162032Y2730597D01*
X3141519D01*
Y2730421D01*
X3141577Y2730244D01*
X3141754Y2729715D01*
X3141989Y2729128D01*
X3142224Y2728422D01*
X3142459Y2727834D01*
X3142694Y2727306D01*
X3142871Y2726894D01*
X3142929Y2726835D01*
Y2726777D01*
X3143811Y2724837D01*
X3144634Y2723015D01*
X3146280Y2719489D01*
X3147808Y2716138D01*
X3149218Y2713023D01*
X3150511Y2710143D01*
X3151746Y2707439D01*
X3152863Y2704912D01*
X3153921Y2702561D01*
X3154920Y2700445D01*
X3155801Y2698447D01*
X3156566Y2696683D01*
X3157329Y2694979D01*
X3157976Y2693510D01*
X3158564Y2692158D01*
X3159093Y2690923D01*
X3159563Y2689807D01*
X3160033Y2688866D01*
X3160386Y2687985D01*
X3160680Y2687220D01*
X3160974Y2686574D01*
X3161209Y2686045D01*
X3161385Y2685575D01*
X3161561Y2685163D01*
X3161679Y2684870D01*
X3161796Y2684576D01*
X3161855Y2684399D01*
X3161914Y2684106D01*
X3161973Y2683988D01*
X3148690D01*
X3148337Y2684047D01*
X3147984Y2684106D01*
X3147749Y2684164D01*
X3147690Y2684223D01*
X3146750Y2686221D01*
X3145868Y2688161D01*
X3144222Y2691923D01*
X3142577Y2695390D01*
X3141107Y2698682D01*
X3139697Y2701797D01*
X3138404Y2704677D01*
X3137169Y2707322D01*
X3135994Y2709849D01*
X3134936Y2712141D01*
X3133996Y2714258D01*
X3133055Y2716197D01*
X3132232Y2718019D01*
X3131468Y2719665D01*
X3130763Y2721134D01*
X3130175Y2722486D01*
X3129587Y2723720D01*
X3129059Y2724837D01*
X3128588Y2725777D01*
X3128235Y2726659D01*
X3127883Y2727423D01*
X3127530Y2728069D01*
X3127295Y2728599D01*
X3127060Y2729069D01*
X3126884Y2729480D01*
X3126707Y2729774D01*
X3126590Y2730068D01*
X3126414Y2730362D01*
X3126296Y2730538D01*
Y2730597D01*
X3105607D01*
X3105490Y2730773D01*
X3105313Y2730950D01*
X3104960Y2731537D01*
X3104549Y2732360D01*
X3104079Y2733242D01*
X3103550Y2734300D01*
X3103021Y2735417D01*
X3101963Y2737768D01*
X3101434Y2738943D01*
X3100905Y2740060D01*
X3100435Y2741118D01*
X3100023Y2742058D01*
X3099671Y2742822D01*
X3099435Y2743410D01*
X3099318Y2743645D01*
X3099259Y2743821D01*
X3099200Y2743880D01*
Y2743939D01*
X3099259Y2744174D01*
X3099435Y2744351D01*
X3099612Y2744409D01*
X3156036D01*
X3156154Y2744292D01*
D02*
G37*
G36*
X3118361Y2724837D02*
X3118596Y2724778D01*
X3118714Y2724720D01*
Y2724661D01*
X3118949Y2724543D01*
X3119184Y2724308D01*
X3119537Y2723838D01*
X3119890Y2723309D01*
X3120242Y2722603D01*
X3120653Y2721898D01*
X3121418Y2720252D01*
X3122182Y2718607D01*
X3122534Y2717901D01*
X3122828Y2717196D01*
X3123063Y2716667D01*
X3123240Y2716197D01*
X3123357Y2715962D01*
X3123416Y2715844D01*
Y2715609D01*
X3096320D01*
Y2714904D01*
X3096555Y2714786D01*
X3096967Y2714610D01*
X3097496Y2714316D01*
X3098260Y2713846D01*
X3099142Y2713376D01*
X3100200Y2712788D01*
X3101375Y2712083D01*
X3102668Y2711377D01*
X3104020Y2710555D01*
X3105490Y2709732D01*
X3107018Y2708850D01*
X3108604Y2707910D01*
X3111955Y2705911D01*
X3115364Y2703913D01*
X3118773Y2701914D01*
X3122064Y2699975D01*
X3123592Y2699034D01*
X3125121Y2698153D01*
X3126531Y2697330D01*
X3127824Y2696566D01*
X3129059Y2695861D01*
X3130116Y2695214D01*
X3131116Y2694626D01*
X3131938Y2694156D01*
X3132585Y2693745D01*
X3133055Y2693451D01*
X3133349Y2693275D01*
X3133466Y2693216D01*
X3133878Y2693098D01*
X3134290Y2692863D01*
X3134760Y2692393D01*
X3135289Y2691864D01*
X3135759Y2691158D01*
X3136229Y2690453D01*
X3137228Y2688866D01*
X3138051Y2687220D01*
X3138463Y2686515D01*
X3138756Y2685810D01*
X3139050Y2685281D01*
X3139227Y2684811D01*
X3139344Y2684576D01*
X3139403Y2684458D01*
X3139344Y2684164D01*
X3139168Y2684047D01*
X3138991Y2683988D01*
X3094440D01*
X3094263Y2684106D01*
X3094028Y2684341D01*
X3093734Y2684752D01*
X3093382Y2685340D01*
X3092970Y2685986D01*
X3092617Y2686692D01*
X3091795Y2688279D01*
X3090972Y2689807D01*
X3090619Y2690512D01*
X3090325Y2691158D01*
X3090031Y2691746D01*
X3089855Y2692158D01*
X3089738Y2692393D01*
X3089679Y2692510D01*
X3089738Y2692745D01*
X3089914Y2692922D01*
X3090090Y2692981D01*
X3117009D01*
Y2693745D01*
X3116774Y2693862D01*
X3116363Y2694039D01*
X3115775Y2694391D01*
X3115011Y2694803D01*
X3114071Y2695332D01*
X3113013Y2695919D01*
X3111837Y2696566D01*
X3110544Y2697330D01*
X3109192Y2698094D01*
X3107723Y2698976D01*
X3106195Y2699857D01*
X3104549Y2700798D01*
X3101199Y2702737D01*
X3097790Y2704736D01*
X3094381Y2706734D01*
X3091089Y2708674D01*
X3089502Y2709555D01*
X3088033Y2710437D01*
X3086622Y2711260D01*
X3085271Y2712083D01*
X3084036Y2712788D01*
X3082978Y2713434D01*
X3081979Y2713964D01*
X3081156Y2714492D01*
X3080510Y2714845D01*
X3080040Y2715139D01*
X3079746Y2715315D01*
X3079628Y2715374D01*
X3079217Y2715492D01*
X3078805Y2715727D01*
X3078335Y2716197D01*
X3077806Y2716726D01*
X3077336Y2717431D01*
X3076866Y2718137D01*
X3075866Y2719782D01*
X3075044Y2721428D01*
X3074632Y2722133D01*
X3074338Y2722839D01*
X3074044Y2723368D01*
X3073868Y2723838D01*
X3073751Y2724073D01*
X3073692Y2724190D01*
Y2724425D01*
X3073751Y2724602D01*
X3073927Y2724837D01*
X3074103Y2724896D01*
X3118185Y2724896D01*
X3118361Y2724837D01*
D02*
G37*
G36*
X3082449Y2692863D02*
X3082685Y2692628D01*
X3083037Y2692216D01*
X3083390Y2691688D01*
X3083742Y2691041D01*
X3084154Y2690336D01*
X3084977Y2688866D01*
X3085741Y2687338D01*
X3086093Y2686633D01*
X3086387Y2685986D01*
X3086681Y2685457D01*
X3086858Y2685046D01*
X3086975Y2684811D01*
X3087034Y2684693D01*
Y2684458D01*
X3086975Y2684282D01*
X3086799Y2684106D01*
X3086622Y2683988D01*
X3041130D01*
X3040954Y2684106D01*
X3040719Y2684341D01*
X3040425Y2684752D01*
X3040072Y2685340D01*
X3039661Y2685986D01*
X3039308Y2686692D01*
X3038485Y2688279D01*
X3037662Y2689807D01*
X3037310Y2690512D01*
X3037016Y2691158D01*
X3036722Y2691746D01*
X3036546Y2692158D01*
X3036428Y2692393D01*
X3036369Y2692510D01*
X3036428Y2692745D01*
X3036604Y2692922D01*
X3036781Y2692981D01*
X3082273D01*
X3082449Y2692863D01*
D02*
G37*
G36*
X3010861Y2724778D02*
X3011096Y2724484D01*
X3011448Y2724073D01*
X3011801Y2723485D01*
X3012154Y2722780D01*
X3012565Y2722016D01*
X3013388Y2720370D01*
X3014152Y2718724D01*
X3014505Y2717960D01*
X3014799Y2717255D01*
X3015034Y2716667D01*
X3015210Y2716256D01*
X3015327Y2715962D01*
X3015386Y2715844D01*
Y2715609D01*
X2982707D01*
X2982061Y2715492D01*
X2981414Y2715433D01*
X2980885Y2715256D01*
X2980474Y2715139D01*
X2980121Y2714962D01*
X2979827Y2714727D01*
X2979592Y2714551D01*
X2979240Y2714140D01*
X2979063Y2713846D01*
X2979004Y2713611D01*
Y2713493D01*
Y2712494D01*
X2979416Y2711848D01*
X2979886Y2711319D01*
X2980415Y2710848D01*
X2981003Y2710437D01*
X2981590Y2710143D01*
X2982178Y2709849D01*
X2983412Y2709438D01*
X2984529Y2709144D01*
X2985058Y2709085D01*
X2985470Y2709026D01*
X2985822Y2708968D01*
X3018737D01*
X3018854Y2708850D01*
X3019089Y2708556D01*
X3019324Y2708145D01*
X3019677Y2707557D01*
X3020030Y2706910D01*
X3020441Y2706205D01*
X3021264Y2704618D01*
X3022087Y2703090D01*
X3022498Y2702326D01*
X3022792Y2701738D01*
X3023086Y2701151D01*
X3023321Y2700739D01*
X3023439Y2700504D01*
X3023497Y2700386D01*
Y2700151D01*
X3023439Y2699857D01*
X3023262Y2699740D01*
X3023086Y2699681D01*
X3007334D01*
X3007216Y2699563D01*
X3006923Y2699270D01*
X3006570Y2698858D01*
X3006100Y2698270D01*
X3005571Y2697565D01*
X3004983Y2696801D01*
X3003749Y2695155D01*
X3002515Y2693510D01*
X3001927Y2692745D01*
X3001457Y2692040D01*
X3000986Y2691452D01*
X3000692Y2691041D01*
X3000457Y2690747D01*
X3000399Y2690630D01*
X2999693Y2689454D01*
X2999047Y2688455D01*
X2998459Y2687573D01*
X2997871Y2686809D01*
X2997401Y2686163D01*
X2996931Y2685634D01*
X2996519Y2685163D01*
X2996167Y2684811D01*
X2995873Y2684517D01*
X2995638Y2684341D01*
X2995226Y2684106D01*
X2994991Y2683988D01*
X2980415D01*
X2980121Y2684047D01*
X2980003Y2684223D01*
X2979945Y2684399D01*
Y2684458D01*
X2989937Y2699211D01*
Y2699681D01*
X2988056Y2699740D01*
X2986057Y2699975D01*
X2984118Y2700269D01*
X2982296Y2700621D01*
X2981473Y2700798D01*
X2980709Y2700974D01*
X2980003Y2701151D01*
X2979416Y2701268D01*
X2978946Y2701385D01*
X2978593Y2701503D01*
X2978358Y2701562D01*
X2978299D01*
X2977065Y2702208D01*
X2975889Y2702796D01*
X2974773Y2703443D01*
X2973715Y2704089D01*
X2972774Y2704736D01*
X2971892Y2705382D01*
X2971070Y2706029D01*
X2970305Y2706675D01*
X2969600Y2707322D01*
X2968954Y2707968D01*
X2967837Y2709261D01*
X2966955Y2710437D01*
X2966191Y2711613D01*
X2965662Y2712729D01*
X2965192Y2713670D01*
X2964898Y2714551D01*
X2964722Y2715315D01*
X2964604Y2715962D01*
X2964487Y2716373D01*
Y2716667D01*
Y2716785D01*
X2964546Y2717549D01*
X2964663Y2718195D01*
X2964839Y2718842D01*
X2965074Y2719489D01*
X2965368Y2720017D01*
X2965721Y2720546D01*
X2966603Y2721487D01*
X2967661Y2722251D01*
X2968777Y2722897D01*
X2970012Y2723426D01*
X2971246Y2723896D01*
X2972539Y2724190D01*
X2973773Y2724484D01*
X2974890Y2724661D01*
X2975948Y2724778D01*
X2976830Y2724837D01*
X2977182Y2724896D01*
X3010626D01*
X3010861Y2724778D01*
D02*
G37*
G36*
X2938919Y2724778D02*
X2941505Y2724484D01*
X2943915Y2724014D01*
X2946149Y2723426D01*
X2948206Y2722662D01*
X2950146Y2721898D01*
X2951909Y2721017D01*
X2953437Y2720135D01*
X2954847Y2719253D01*
X2956082Y2718372D01*
X2957081Y2717607D01*
X2957963Y2716844D01*
X2958609Y2716256D01*
X2959079Y2715786D01*
X2959373Y2715492D01*
X2959491Y2715374D01*
X2960490Y2713611D01*
X2961430Y2711906D01*
X2962371Y2710261D01*
X2963194Y2708732D01*
X2963958Y2707322D01*
X2964663Y2705911D01*
X2965309Y2704618D01*
X2965956Y2703443D01*
X2966485Y2702326D01*
X2967014Y2701209D01*
X2967484Y2700269D01*
X2967954Y2699328D01*
X2968307Y2698447D01*
X2968660Y2697682D01*
X2968954Y2696919D01*
X2969248Y2696272D01*
X2969718Y2695096D01*
X2970070Y2694097D01*
X2970305Y2693333D01*
X2970482Y2692745D01*
X2970599Y2692334D01*
X2970658Y2692040D01*
Y2691864D01*
Y2691805D01*
X2970599Y2690865D01*
X2970423Y2689983D01*
X2970305Y2689572D01*
X2970247Y2689278D01*
X2970188Y2689043D01*
Y2688984D01*
X2969600Y2688102D01*
X2968954Y2687338D01*
X2968190Y2686692D01*
X2967426Y2686104D01*
X2966603Y2685634D01*
X2965780Y2685222D01*
X2964957Y2684869D01*
X2964134Y2684634D01*
X2963370Y2684399D01*
X2962606Y2684282D01*
X2961960Y2684164D01*
X2961371Y2684047D01*
X2960901D01*
X2960490Y2683988D01*
X2939742Y2683988D01*
X2937626Y2684106D01*
X2935569Y2684399D01*
X2933629Y2684869D01*
X2931749Y2685516D01*
X2929985Y2686280D01*
X2928281Y2687103D01*
X2926753Y2687985D01*
X2925342Y2688866D01*
X2924049Y2689807D01*
X2922874Y2690688D01*
X2921874Y2691511D01*
X2921052Y2692216D01*
X2920405Y2692863D01*
X2919935Y2693333D01*
X2919641Y2693627D01*
X2919523Y2693745D01*
X2918524Y2695508D01*
X2917584Y2697213D01*
X2916702Y2698858D01*
X2915879Y2700386D01*
X2915115Y2701797D01*
X2914410Y2703149D01*
X2913763Y2704442D01*
X2913176Y2705617D01*
X2912588Y2706793D01*
X2912118Y2707792D01*
X2911648Y2708791D01*
X2911236Y2709732D01*
X2910825Y2710555D01*
X2910472Y2711318D01*
X2910178Y2712083D01*
X2909884Y2712729D01*
X2909473Y2713905D01*
X2909120Y2714845D01*
X2908885Y2715551D01*
X2908709Y2716138D01*
X2908591Y2716550D01*
X2908532Y2716843D01*
Y2716961D01*
Y2717020D01*
X2908591Y2717725D01*
X2908709Y2718430D01*
X2908885Y2719018D01*
X2909120Y2719606D01*
X2909414Y2720193D01*
X2909825Y2720664D01*
X2910707Y2721604D01*
X2911706Y2722310D01*
X2912882Y2722956D01*
X2914175Y2723485D01*
X2915409Y2723896D01*
X2916702Y2724249D01*
X2917995Y2724484D01*
X2919112Y2724661D01*
X2920170Y2724778D01*
X2921052Y2724837D01*
X2921463Y2724896D01*
X2936157D01*
X2938919Y2724778D01*
D02*
G37*
G36*
X3084006Y2666155D02*
Y2657826D01*
X3079246D01*
Y2661396D01*
Y2664965D01*
X3076866D01*
Y2663775D01*
Y2662585D01*
X3074487D01*
Y2663775D01*
Y2664965D01*
X3072107D01*
Y2661396D01*
Y2657826D01*
X3067348D01*
Y2666155D01*
Y2674484D01*
X3072107D01*
Y2673294D01*
Y2672104D01*
X3074487D01*
Y2670914D01*
Y2669724D01*
X3076866D01*
Y2670914D01*
Y2672104D01*
X3079246D01*
Y2673294D01*
Y2674484D01*
X3084006D01*
Y2666155D01*
D02*
G37*
G36*
X3043550Y2673294D02*
Y2672104D01*
X3045930D01*
Y2670914D01*
Y2669724D01*
X3041171D01*
Y2670914D01*
Y2672104D01*
X3034031D01*
Y2670914D01*
Y2669724D01*
X3036411D01*
Y2668535D01*
Y2667345D01*
X3041171D01*
Y2666155D01*
Y2664965D01*
X3043550D01*
Y2663775D01*
Y2662585D01*
X3045930D01*
Y2660206D01*
Y2657826D01*
X3029272D01*
Y2659016D01*
Y2660206D01*
X3038791D01*
Y2661396D01*
Y2662585D01*
X3034031D01*
Y2663775D01*
Y2664965D01*
X3031652D01*
Y2666155D01*
Y2667345D01*
X3029272D01*
Y2669724D01*
Y2672104D01*
X3031652D01*
Y2673294D01*
Y2674484D01*
X3043550D01*
Y2673294D01*
D02*
G37*
G36*
X3100664Y2666155D02*
Y2664965D01*
X3086385Y2664965D01*
Y2666155D01*
Y2667345D01*
X3100664Y2667345D01*
Y2666155D01*
D02*
G37*
G36*
X3160157D02*
Y2657826D01*
X3155398D01*
Y2660206D01*
Y2662585D01*
X3153018D01*
Y2661396D01*
Y2660206D01*
X3150638D01*
Y2659016D01*
Y2657826D01*
X3143499D01*
Y2659016D01*
Y2660206D01*
X3145879D01*
Y2661396D01*
Y2662585D01*
X3148258D01*
Y2663775D01*
Y2664965D01*
X3143499D01*
Y2668535D01*
Y2672104D01*
X3145879D01*
Y2673294D01*
Y2674484D01*
X3160157D01*
Y2666155D01*
D02*
G37*
G36*
X3138739Y2673294D02*
Y2672104D01*
X3133980D01*
Y2664965D01*
Y2657826D01*
X3129221D01*
Y2664965D01*
Y2672104D01*
X3124461D01*
Y2673294D01*
Y2674484D01*
X3138739D01*
Y2673294D01*
D02*
G37*
G36*
X3122081Y2666155D02*
Y2657826D01*
X3110183D01*
Y2659016D01*
Y2660206D01*
X3107803D01*
Y2661396D01*
Y2662585D01*
X3105423D01*
Y2666155D01*
Y2669725D01*
X3107803D01*
Y2670914D01*
Y2672104D01*
X3110183D01*
Y2673294D01*
Y2674484D01*
X3122081D01*
Y2666155D01*
D02*
G37*
G36*
X3057829Y2673294D02*
Y2672104D01*
X3060208D01*
Y2670914D01*
Y2669724D01*
X3057829D01*
Y2664965D01*
Y2660206D01*
X3062588D01*
Y2659016D01*
Y2657826D01*
X3048310D01*
Y2659016D01*
Y2660206D01*
X3053069D01*
Y2667345D01*
Y2674484D01*
X3057829D01*
Y2673294D01*
D02*
G37*
G36*
X3123378Y2649609D02*
Y2648580D01*
X3119263D01*
Y2647552D01*
Y2646523D01*
X3117206D01*
Y2642408D01*
Y2638293D01*
X3115148D01*
Y2639322D01*
Y2640351D01*
X3113091D01*
Y2643437D01*
Y2646523D01*
X3115148D01*
Y2647552D01*
Y2648580D01*
X3117206D01*
Y2649609D01*
Y2650638D01*
X3123378D01*
Y2649609D01*
D02*
G37*
G36*
X3106919D02*
Y2648580D01*
X3102804D01*
Y2647552D01*
Y2646523D01*
X3100746D01*
Y2642408D01*
Y2638293D01*
X3098689D01*
Y2639322D01*
Y2640351D01*
X3096631D01*
Y2643437D01*
Y2646523D01*
X3098689D01*
Y2647552D01*
Y2648580D01*
X3100746D01*
Y2649609D01*
Y2650638D01*
X3106919D01*
Y2649609D01*
D02*
G37*
G36*
X3074000Y2649609D02*
Y2648580D01*
X3069885D01*
Y2647552D01*
Y2646523D01*
X3067828D01*
Y2642408D01*
Y2638293D01*
X3065771D01*
Y2639322D01*
Y2640351D01*
X3063713D01*
Y2643437D01*
Y2646523D01*
X3065771D01*
Y2647552D01*
Y2648580D01*
X3067828D01*
Y2649609D01*
Y2650638D01*
X3074000D01*
Y2649609D01*
D02*
G37*
G36*
X3008163D02*
Y2648580D01*
X3010221D01*
Y2647552D01*
Y2646523D01*
X3012278D01*
Y2643437D01*
Y2640351D01*
X3010221D01*
Y2639322D01*
Y2638293D01*
X3008163D01*
Y2637265D01*
Y2636236D01*
X2999934D01*
Y2637265D01*
Y2638293D01*
X2997876D01*
Y2639322D01*
Y2640351D01*
X3001991D01*
Y2639322D01*
Y2638293D01*
X3006106D01*
Y2639322D01*
Y2640351D01*
X3008163D01*
Y2643437D01*
Y2646523D01*
X3006106D01*
Y2647552D01*
Y2648580D01*
X3001991D01*
Y2647552D01*
Y2646523D01*
X2997876D01*
Y2647552D01*
Y2648580D01*
X2999934D01*
Y2649609D01*
Y2650638D01*
X3008163D01*
Y2649609D01*
D02*
G37*
G36*
X2991704D02*
Y2648580D01*
X2993762D01*
Y2647552D01*
Y2646523D01*
X2995819D01*
Y2643437D01*
Y2640351D01*
X2993762D01*
Y2639322D01*
Y2638293D01*
X2991704D01*
Y2637265D01*
Y2636236D01*
X2983475D01*
Y2637265D01*
Y2638293D01*
X2981417D01*
Y2639322D01*
Y2640351D01*
X2985532D01*
Y2639322D01*
Y2638293D01*
X2989647D01*
Y2639322D01*
Y2640351D01*
X2991704D01*
Y2643437D01*
Y2646523D01*
X2989647D01*
Y2647552D01*
Y2648580D01*
X2985532D01*
Y2647552D01*
Y2646523D01*
X2981417D01*
Y2647552D01*
Y2648580D01*
X2983475D01*
Y2649609D01*
Y2650638D01*
X2991704D01*
Y2649609D01*
D02*
G37*
G36*
X3158354Y2649609D02*
Y2648580D01*
X3160411D01*
Y2646523D01*
Y2644466D01*
X3158354D01*
Y2643437D01*
Y2642408D01*
X3150124D01*
Y2640351D01*
Y2638293D01*
X3156296D01*
Y2639322D01*
Y2640351D01*
X3160411D01*
Y2639322D01*
Y2638293D01*
X3158354D01*
Y2637265D01*
Y2636236D01*
X3148067D01*
Y2637265D01*
Y2638293D01*
X3146009D01*
Y2640351D01*
Y2642408D01*
X3148067D01*
Y2643437D01*
Y2644466D01*
X3156296D01*
Y2646523D01*
Y2648580D01*
X3152181D01*
Y2647552D01*
Y2646523D01*
X3148067D01*
Y2647552D01*
Y2648580D01*
X3150124D01*
Y2649609D01*
Y2650638D01*
X3158354D01*
Y2649609D01*
D02*
G37*
G36*
X3143952Y2643437D02*
Y2636236D01*
X3131607D01*
Y2637265D01*
Y2638293D01*
X3129550D01*
Y2640351D01*
Y2642408D01*
X3131607D01*
Y2643437D01*
Y2644466D01*
X3129550D01*
Y2646523D01*
Y2648580D01*
X3131607D01*
Y2649609D01*
Y2650638D01*
X3143952D01*
Y2643437D01*
D02*
G37*
G36*
X3125435Y2647552D02*
Y2646523D01*
X3127493D01*
Y2643437D01*
Y2640351D01*
X3125435D01*
Y2639322D01*
Y2638293D01*
X3123378D01*
Y2637265D01*
Y2636236D01*
X3117206D01*
Y2637265D01*
Y2638293D01*
X3121320D01*
Y2639322D01*
Y2640351D01*
X3123378D01*
Y2644466D01*
Y2648580D01*
X3125435D01*
Y2647552D01*
D02*
G37*
G36*
X3108976D02*
Y2646523D01*
X3111033D01*
Y2643437D01*
Y2640351D01*
X3108976D01*
Y2639322D01*
Y2638293D01*
X3106919D01*
Y2637265D01*
Y2636236D01*
X3100746D01*
Y2637265D01*
Y2638293D01*
X3104861D01*
Y2639322D01*
Y2640351D01*
X3106919D01*
Y2644466D01*
Y2648580D01*
X3108976D01*
Y2647552D01*
D02*
G37*
G36*
X3088402Y2649609D02*
Y2648580D01*
X3090459D01*
Y2647552D01*
Y2646523D01*
X3092517D01*
Y2645494D01*
Y2644466D01*
X3094574D01*
Y2642408D01*
Y2640351D01*
X3086345Y2640351D01*
Y2638293D01*
Y2636236D01*
X3082230D01*
Y2638293D01*
Y2640351D01*
X3080172D01*
Y2641379D01*
Y2642408D01*
X3082230D01*
Y2646523D01*
Y2650638D01*
X3088402Y2650638D01*
Y2649609D01*
D02*
G37*
G36*
X3076058Y2647552D02*
Y2646523D01*
X3078115D01*
Y2643437D01*
Y2640351D01*
X3076058D01*
Y2639322D01*
Y2638293D01*
X3074000D01*
Y2637265D01*
Y2636236D01*
X3067828D01*
Y2637265D01*
Y2638293D01*
X3071943D01*
Y2639322D01*
Y2640351D01*
X3074000D01*
Y2644466D01*
Y2648580D01*
X3076058D01*
Y2647552D01*
D02*
G37*
G36*
X3061656Y2643437D02*
Y2636236D01*
X3049312D01*
Y2637265D01*
Y2638293D01*
X3047254D01*
Y2640351D01*
Y2642408D01*
X3049312D01*
Y2643437D01*
Y2644466D01*
X3047254D01*
Y2646523D01*
Y2648580D01*
X3049312D01*
Y2649609D01*
Y2650638D01*
X3061656D01*
Y2643437D01*
D02*
G37*
G36*
X3024622D02*
Y2636236D01*
X3016393D01*
Y2637265D01*
Y2638293D01*
X3020508D01*
Y2643437D01*
Y2648580D01*
X3016393D01*
Y2649609D01*
Y2650638D01*
X3024622D01*
Y2643437D01*
D02*
G37*
G36*
X2975245Y2649609D02*
Y2648580D01*
X2977303D01*
Y2647552D01*
Y2646523D01*
X2979360D01*
Y2641379D01*
Y2636236D01*
X2975245D01*
Y2638293D01*
Y2640351D01*
X2969073D01*
Y2638293D01*
Y2636236D01*
X2964958D01*
Y2641379D01*
Y2646523D01*
X2967015D01*
Y2647552D01*
Y2648580D01*
X2969073D01*
Y2649609D01*
Y2650638D01*
X2975245D01*
Y2649609D01*
D02*
G37*
G36*
X2960843D02*
Y2648580D01*
X2956729D01*
Y2643437D01*
Y2638293D01*
X2960843D01*
Y2637265D01*
Y2636236D01*
X2952614D01*
Y2643437D01*
Y2650638D01*
X2960843D01*
Y2649609D01*
D02*
G37*
G36*
X3123124Y2627765D02*
Y2626736D01*
X3119009D01*
Y2625708D01*
Y2624679D01*
X3116952D01*
Y2620564D01*
Y2616449D01*
X3114894D01*
Y2617478D01*
Y2618507D01*
X3112837D01*
Y2621593D01*
Y2624679D01*
X3114894D01*
Y2625708D01*
Y2626736D01*
X3116952D01*
Y2627765D01*
Y2628794D01*
X3123124D01*
Y2627765D01*
D02*
G37*
G36*
X3106665D02*
Y2626736D01*
X3102550D01*
Y2625708D01*
Y2624679D01*
X3100492D01*
Y2620564D01*
Y2616449D01*
X3098435D01*
Y2617478D01*
Y2618507D01*
X3096378D01*
Y2621593D01*
Y2624679D01*
X3098435D01*
Y2625708D01*
Y2626736D01*
X3100492D01*
Y2627765D01*
Y2628794D01*
X3106665D01*
Y2627765D01*
D02*
G37*
G36*
X2991450Y2627765D02*
Y2626736D01*
X2993508D01*
Y2625708D01*
Y2624679D01*
X2995565D01*
Y2621593D01*
Y2618507D01*
X2993508D01*
Y2617478D01*
Y2616449D01*
X2991450D01*
Y2615421D01*
Y2614392D01*
X2983221D01*
Y2615421D01*
Y2616449D01*
X2981163D01*
Y2617478D01*
Y2618507D01*
X2985278D01*
Y2617478D01*
Y2616449D01*
X2989393D01*
Y2617478D01*
Y2618507D01*
X2991450D01*
Y2621593D01*
Y2624679D01*
X2989393D01*
Y2625708D01*
Y2626736D01*
X2985278D01*
Y2625708D01*
Y2624679D01*
X2981163D01*
Y2625708D01*
Y2626736D01*
X2983221D01*
Y2627765D01*
Y2628794D01*
X2991450D01*
Y2627765D01*
D02*
G37*
G36*
X3158100Y2627765D02*
Y2626736D01*
X3160157D01*
Y2624679D01*
Y2622621D01*
X3158100D01*
Y2621593D01*
Y2620564D01*
X3149870D01*
Y2618507D01*
Y2616449D01*
X3156042D01*
Y2617478D01*
Y2618507D01*
X3160157D01*
Y2617478D01*
Y2616449D01*
X3158100D01*
Y2615421D01*
Y2614392D01*
X3147812D01*
Y2615421D01*
Y2616449D01*
X3145755D01*
Y2618507D01*
Y2620564D01*
X3147812D01*
Y2621593D01*
Y2622621D01*
X3156042D01*
Y2624679D01*
Y2626736D01*
X3151927D01*
Y2625708D01*
Y2624679D01*
X3147812D01*
Y2625708D01*
Y2626736D01*
X3149870D01*
Y2627765D01*
Y2628794D01*
X3158100D01*
Y2627765D01*
D02*
G37*
G36*
X3143698Y2621593D02*
Y2614392D01*
X3131353D01*
Y2615421D01*
Y2616449D01*
X3129296D01*
Y2618507D01*
Y2620564D01*
X3131353D01*
Y2621593D01*
Y2622621D01*
X3129296D01*
Y2624679D01*
Y2626736D01*
X3131353D01*
Y2627765D01*
Y2628794D01*
X3143698D01*
Y2621593D01*
D02*
G37*
G36*
X3125181Y2625708D02*
Y2624679D01*
X3127238D01*
Y2621593D01*
Y2618507D01*
X3125181D01*
Y2617478D01*
Y2616449D01*
X3123124D01*
Y2615421D01*
Y2614392D01*
X3116952D01*
Y2615421D01*
Y2616449D01*
X3121066D01*
Y2617478D01*
Y2618507D01*
X3123124D01*
Y2622621D01*
Y2626736D01*
X3125181D01*
Y2625708D01*
D02*
G37*
G36*
X3108722D02*
Y2624679D01*
X3110779D01*
Y2621593D01*
Y2618507D01*
X3108722D01*
Y2617478D01*
Y2616449D01*
X3106665D01*
Y2615421D01*
Y2614392D01*
X3100492D01*
Y2615421D01*
Y2616449D01*
X3104607D01*
Y2617478D01*
Y2618507D01*
X3106665D01*
Y2622621D01*
Y2626736D01*
X3108722D01*
Y2625708D01*
D02*
G37*
G36*
X3088148Y2627765D02*
Y2626736D01*
X3090205D01*
Y2625708D01*
Y2624679D01*
X3092263D01*
Y2623650D01*
Y2622621D01*
X3094320D01*
Y2620564D01*
Y2618507D01*
X3086091Y2618507D01*
Y2616449D01*
Y2614392D01*
X3081976D01*
Y2616449D01*
Y2618507D01*
X3079919D01*
Y2619536D01*
Y2620564D01*
X3081976D01*
Y2624679D01*
Y2628794D01*
X3088148Y2628794D01*
Y2627765D01*
D02*
G37*
G36*
X3071689Y2627765D02*
Y2626736D01*
X3073746D01*
Y2625708D01*
Y2624679D01*
X3071689D01*
Y2620564D01*
Y2616449D01*
X3075804D01*
Y2615421D01*
Y2614392D01*
X3063459D01*
Y2615421D01*
Y2616449D01*
X3067574D01*
Y2622621D01*
Y2628794D01*
X3071689D01*
Y2627765D01*
D02*
G37*
G36*
X3061402Y2621593D02*
Y2614392D01*
X3049057D01*
Y2615421D01*
Y2616449D01*
X3047000D01*
Y2618507D01*
Y2620564D01*
X3049057D01*
Y2621593D01*
Y2622621D01*
X3047000D01*
Y2624679D01*
Y2626736D01*
X3049057D01*
Y2627765D01*
Y2628794D01*
X3061402D01*
Y2621593D01*
D02*
G37*
G36*
X3024369D02*
Y2614392D01*
X3016139D01*
Y2615421D01*
Y2616449D01*
X3020254D01*
Y2621593D01*
Y2626736D01*
X3016139D01*
Y2627765D01*
Y2628794D01*
X3024369D01*
Y2621593D01*
D02*
G37*
G36*
X3012024D02*
Y2614392D01*
X3007910D01*
Y2616449D01*
Y2618507D01*
X2999680D01*
Y2619536D01*
Y2620564D01*
X2997622D01*
Y2623650D01*
Y2626736D01*
X2999680D01*
Y2627765D01*
Y2628794D01*
X3012024D01*
Y2621593D01*
D02*
G37*
G36*
X2979106D02*
Y2614392D01*
X2966761D01*
Y2615421D01*
Y2616449D01*
X2964704D01*
Y2618507D01*
Y2620564D01*
X2966761D01*
Y2621593D01*
Y2622621D01*
X2964704D01*
Y2624679D01*
Y2626736D01*
X2966761D01*
Y2627765D01*
Y2628794D01*
X2979106D01*
Y2621593D01*
D02*
G37*
G36*
X2960589Y2627765D02*
Y2626736D01*
X2956474D01*
Y2621593D01*
Y2616449D01*
X2960589D01*
Y2615421D01*
Y2614392D01*
X2952360D01*
Y2621593D01*
Y2628794D01*
X2960589D01*
Y2627765D01*
D02*
G37*
G36*
X3225021Y2675720D02*
X3225253Y2675699D01*
X3225471Y2675663D01*
X3225682Y2675621D01*
X3225872Y2675572D01*
X3226055Y2675516D01*
X3226224Y2675452D01*
X3226371Y2675389D01*
X3226505Y2675326D01*
X3226632Y2675262D01*
X3226730Y2675206D01*
X3226822Y2675157D01*
X3226885Y2675114D01*
X3226935Y2675079D01*
X3226970Y2675058D01*
X3226977Y2675051D01*
X3227131Y2674918D01*
X3227272Y2674763D01*
X3227399Y2674601D01*
X3227504Y2674425D01*
X3227603Y2674242D01*
X3227687Y2674059D01*
X3227758Y2673876D01*
X3227821Y2673693D01*
X3227870Y2673524D01*
X3227912Y2673363D01*
X3227947Y2673222D01*
X3227969Y2673095D01*
X3227990Y2672990D01*
X3227997Y2672947D01*
X3228004Y2672912D01*
Y2672884D01*
X3228011Y2672863D01*
Y2672849D01*
Y2672842D01*
X3226153Y2672659D01*
X3226139Y2672807D01*
X3226125Y2672940D01*
X3226097Y2673067D01*
X3226069Y2673187D01*
X3226041Y2673292D01*
X3226006Y2673391D01*
X3225970Y2673475D01*
X3225935Y2673553D01*
X3225900Y2673616D01*
X3225872Y2673672D01*
X3225844Y2673721D01*
X3225816Y2673757D01*
X3225795Y2673792D01*
X3225774Y2673813D01*
X3225766Y2673820D01*
X3225759Y2673827D01*
X3225689Y2673890D01*
X3225619Y2673947D01*
X3225541Y2673989D01*
X3225471Y2674031D01*
X3225309Y2674094D01*
X3225161Y2674137D01*
X3225028Y2674158D01*
X3224971Y2674172D01*
X3224922D01*
X3224880Y2674179D01*
X3224824D01*
X3224718Y2674172D01*
X3224612Y2674165D01*
X3224430Y2674130D01*
X3224268Y2674073D01*
X3224134Y2674010D01*
X3224085Y2673982D01*
X3224036Y2673947D01*
X3223994Y2673918D01*
X3223958Y2673897D01*
X3223930Y2673869D01*
X3223909Y2673855D01*
X3223902Y2673848D01*
X3223895Y2673841D01*
X3223839Y2673778D01*
X3223782Y2673700D01*
X3223698Y2673553D01*
X3223642Y2673391D01*
X3223600Y2673236D01*
X3223571Y2673095D01*
X3223564Y2673039D01*
Y2672990D01*
X3223557Y2672940D01*
Y2672912D01*
Y2672891D01*
Y2672884D01*
X3223564Y2672779D01*
X3223571Y2672673D01*
X3223621Y2672462D01*
X3223677Y2672272D01*
X3223747Y2672096D01*
X3223789Y2672019D01*
X3223824Y2671949D01*
X3223853Y2671892D01*
X3223881Y2671836D01*
X3223909Y2671794D01*
X3223930Y2671765D01*
X3223937Y2671744D01*
X3223944Y2671737D01*
X3224008Y2671653D01*
X3224092Y2671548D01*
X3224190Y2671435D01*
X3224310Y2671315D01*
X3224430Y2671182D01*
X3224563Y2671055D01*
X3224824Y2670787D01*
X3224957Y2670661D01*
X3225077Y2670541D01*
X3225190Y2670436D01*
X3225288Y2670337D01*
X3225372Y2670260D01*
X3225436Y2670197D01*
X3225478Y2670161D01*
X3225485Y2670154D01*
X3225492Y2670147D01*
X3225774Y2669880D01*
X3226034Y2669626D01*
X3226266Y2669395D01*
X3226484Y2669169D01*
X3226674Y2668958D01*
X3226850Y2668768D01*
X3226998Y2668593D01*
X3227131Y2668430D01*
X3227244Y2668290D01*
X3227343Y2668163D01*
X3227427Y2668058D01*
X3227490Y2667973D01*
X3227532Y2667903D01*
X3227568Y2667854D01*
X3227589Y2667818D01*
X3227596Y2667811D01*
X3227687Y2667643D01*
X3227772Y2667481D01*
X3227849Y2667312D01*
X3227919Y2667150D01*
X3227976Y2666988D01*
X3228025Y2666841D01*
X3228074Y2666693D01*
X3228109Y2666552D01*
X3228145Y2666425D01*
X3228166Y2666313D01*
X3228187Y2666207D01*
X3228201Y2666123D01*
X3228215Y2666053D01*
X3228222Y2665996D01*
X3228229Y2665968D01*
Y2665954D01*
X3221686D01*
Y2667685D01*
X3225401D01*
X3225344Y2667776D01*
X3225281Y2667868D01*
X3225218Y2667959D01*
X3225154Y2668036D01*
X3225105Y2668100D01*
X3225056Y2668156D01*
X3225028Y2668184D01*
X3225021Y2668198D01*
X3224971Y2668255D01*
X3224901Y2668325D01*
X3224831Y2668395D01*
X3224746Y2668480D01*
X3224556Y2668656D01*
X3224366Y2668839D01*
X3224275Y2668923D01*
X3224190Y2669008D01*
X3224106Y2669078D01*
X3224036Y2669141D01*
X3223979Y2669197D01*
X3223930Y2669240D01*
X3223902Y2669268D01*
X3223895Y2669275D01*
X3223733Y2669423D01*
X3223585Y2669563D01*
X3223452Y2669690D01*
X3223332Y2669810D01*
X3223220Y2669922D01*
X3223121Y2670028D01*
X3223029Y2670119D01*
X3222952Y2670204D01*
X3222882Y2670274D01*
X3222826Y2670337D01*
X3222776Y2670393D01*
X3222734Y2670443D01*
X3222706Y2670478D01*
X3222685Y2670499D01*
X3222678Y2670513D01*
X3222671Y2670520D01*
X3222495Y2670759D01*
X3222340Y2670984D01*
X3222213Y2671196D01*
X3222157Y2671294D01*
X3222108Y2671385D01*
X3222066Y2671463D01*
X3222030Y2671541D01*
X3221995Y2671604D01*
X3221967Y2671653D01*
X3221953Y2671702D01*
X3221939Y2671730D01*
X3221925Y2671751D01*
Y2671758D01*
X3221848Y2671984D01*
X3221784Y2672209D01*
X3221742Y2672420D01*
X3221714Y2672610D01*
X3221707Y2672694D01*
X3221700Y2672772D01*
X3221693Y2672842D01*
X3221686Y2672898D01*
Y2672947D01*
Y2672983D01*
Y2673004D01*
Y2673011D01*
X3221693Y2673222D01*
X3221721Y2673426D01*
X3221763Y2673623D01*
X3221812Y2673806D01*
X3221876Y2673975D01*
X3221946Y2674137D01*
X3222023Y2674277D01*
X3222101Y2674411D01*
X3222178Y2674531D01*
X3222256Y2674643D01*
X3222326Y2674727D01*
X3222389Y2674805D01*
X3222438Y2674868D01*
X3222481Y2674911D01*
X3222509Y2674939D01*
X3222516Y2674946D01*
X3222678Y2675086D01*
X3222847Y2675206D01*
X3223029Y2675305D01*
X3223220Y2675396D01*
X3223402Y2675473D01*
X3223593Y2675537D01*
X3223782Y2675586D01*
X3223958Y2675628D01*
X3224127Y2675663D01*
X3224282Y2675685D01*
X3224423Y2675706D01*
X3224542Y2675713D01*
X3224641Y2675720D01*
X3224718Y2675727D01*
X3224781D01*
X3225021Y2675720D01*
D02*
G37*
G36*
X3213188Y2703145D02*
X3213462Y2703109D01*
X3213589Y2703088D01*
X3213708Y2703060D01*
X3213821Y2703039D01*
X3213926Y2703011D01*
X3214018Y2702983D01*
X3214102Y2702955D01*
X3214172Y2702927D01*
X3214236Y2702905D01*
X3214285Y2702884D01*
X3214320Y2702870D01*
X3214341Y2702863D01*
X3214348Y2702856D01*
X3214580Y2702737D01*
X3214679Y2702666D01*
X3214778Y2702596D01*
X3214869Y2702532D01*
X3214953Y2702462D01*
X3215031Y2702392D01*
X3215094Y2702328D01*
X3215157Y2702265D01*
X3215214Y2702209D01*
X3215256Y2702160D01*
X3215291Y2702110D01*
X3215326Y2702075D01*
X3215347Y2702047D01*
X3215355Y2702033D01*
X3215362Y2702026D01*
X3215425Y2701920D01*
X3215488Y2701815D01*
X3215594Y2701583D01*
X3215685Y2701343D01*
X3215763Y2701118D01*
X3215798Y2701020D01*
X3215819Y2700921D01*
X3215847Y2700837D01*
X3215861Y2700759D01*
X3215875Y2700696D01*
X3215889Y2700654D01*
X3215896Y2700619D01*
Y2700612D01*
X3214179Y2700323D01*
X3214165Y2700436D01*
X3214144Y2700548D01*
X3214116Y2700647D01*
X3214088Y2700738D01*
X3214053Y2700830D01*
X3214018Y2700907D01*
X3213983Y2700977D01*
X3213947Y2701041D01*
X3213912Y2701097D01*
X3213884Y2701147D01*
X3213849Y2701189D01*
X3213828Y2701224D01*
X3213800Y2701252D01*
X3213785Y2701273D01*
X3213778Y2701280D01*
X3213771Y2701287D01*
X3213708Y2701343D01*
X3213638Y2701400D01*
X3213497Y2701484D01*
X3213356Y2701541D01*
X3213230Y2701583D01*
X3213117Y2701611D01*
X3213068Y2701618D01*
X3213026D01*
X3212997Y2701625D01*
X3212948D01*
X3212772Y2701611D01*
X3212625Y2701576D01*
X3212491Y2701534D01*
X3212378Y2701477D01*
X3212287Y2701421D01*
X3212224Y2701378D01*
X3212181Y2701343D01*
X3212167Y2701329D01*
X3212069Y2701210D01*
X3211998Y2701083D01*
X3211942Y2700956D01*
X3211907Y2700830D01*
X3211886Y2700717D01*
X3211879Y2700675D01*
Y2700633D01*
X3211872Y2700598D01*
Y2700569D01*
Y2700555D01*
Y2700548D01*
X3211879Y2700443D01*
X3211886Y2700344D01*
X3211907Y2700246D01*
X3211935Y2700161D01*
X3211998Y2700000D01*
X3212069Y2699866D01*
X3212111Y2699810D01*
X3212146Y2699760D01*
X3212181Y2699718D01*
X3212209Y2699683D01*
X3212238Y2699655D01*
X3212259Y2699634D01*
X3212266Y2699627D01*
X3212273Y2699620D01*
X3212350Y2699556D01*
X3212435Y2699507D01*
X3212526Y2699465D01*
X3212625Y2699423D01*
X3212815Y2699366D01*
X3213004Y2699331D01*
X3213089Y2699317D01*
X3213174Y2699310D01*
X3213244Y2699303D01*
X3213307Y2699296D01*
X3213434D01*
X3213638Y2697776D01*
X3213462Y2697826D01*
X3213300Y2697861D01*
X3213152Y2697882D01*
X3213026Y2697903D01*
X3212927Y2697910D01*
X3212885D01*
X3212850Y2697917D01*
X3212786D01*
X3212688Y2697910D01*
X3212589Y2697896D01*
X3212498Y2697882D01*
X3212414Y2697854D01*
X3212259Y2697783D01*
X3212125Y2697713D01*
X3212013Y2697635D01*
X3211970Y2697600D01*
X3211935Y2697565D01*
X3211900Y2697537D01*
X3211879Y2697523D01*
X3211872Y2697509D01*
X3211865Y2697502D01*
X3211794Y2697425D01*
X3211738Y2697333D01*
X3211689Y2697242D01*
X3211647Y2697150D01*
X3211576Y2696967D01*
X3211534Y2696784D01*
X3211513Y2696707D01*
X3211506Y2696629D01*
X3211499Y2696559D01*
X3211492Y2696503D01*
X3211485Y2696454D01*
Y2696411D01*
Y2696390D01*
Y2696383D01*
X3211492Y2696249D01*
X3211499Y2696116D01*
X3211520Y2695996D01*
X3211548Y2695883D01*
X3211576Y2695778D01*
X3211611Y2695680D01*
X3211647Y2695595D01*
X3211682Y2695511D01*
X3211724Y2695440D01*
X3211759Y2695377D01*
X3211794Y2695328D01*
X3211823Y2695279D01*
X3211851Y2695244D01*
X3211872Y2695222D01*
X3211879Y2695208D01*
X3211886Y2695201D01*
X3211963Y2695124D01*
X3212041Y2695060D01*
X3212118Y2694997D01*
X3212202Y2694948D01*
X3212287Y2694906D01*
X3212364Y2694871D01*
X3212519Y2694821D01*
X3212653Y2694786D01*
X3212709Y2694779D01*
X3212758Y2694772D01*
X3212801Y2694765D01*
X3212857D01*
X3212955Y2694772D01*
X3213047Y2694779D01*
X3213223Y2694821D01*
X3213377Y2694878D01*
X3213511Y2694948D01*
X3213624Y2695011D01*
X3213666Y2695039D01*
X3213701Y2695067D01*
X3213729Y2695089D01*
X3213750Y2695110D01*
X3213764Y2695117D01*
X3213771Y2695124D01*
X3213835Y2695194D01*
X3213898Y2695272D01*
X3213997Y2695447D01*
X3214081Y2695623D01*
X3214137Y2695792D01*
X3214165Y2695870D01*
X3214179Y2695947D01*
X3214201Y2696010D01*
X3214207Y2696074D01*
X3214222Y2696123D01*
Y2696158D01*
X3214229Y2696179D01*
Y2696186D01*
X3216037Y2695961D01*
X3216002Y2695736D01*
X3215952Y2695525D01*
X3215896Y2695321D01*
X3215826Y2695138D01*
X3215741Y2694962D01*
X3215657Y2694793D01*
X3215573Y2694645D01*
X3215481Y2694512D01*
X3215397Y2694392D01*
X3215312Y2694279D01*
X3215235Y2694188D01*
X3215172Y2694118D01*
X3215115Y2694054D01*
X3215066Y2694012D01*
X3215038Y2693984D01*
X3215031Y2693977D01*
X3214862Y2693843D01*
X3214686Y2693723D01*
X3214503Y2693625D01*
X3214320Y2693541D01*
X3214137Y2693463D01*
X3213954Y2693400D01*
X3213778Y2693351D01*
X3213610Y2693316D01*
X3213448Y2693280D01*
X3213307Y2693259D01*
X3213174Y2693238D01*
X3213061Y2693231D01*
X3212969Y2693224D01*
X3212899Y2693217D01*
X3212843D01*
X3212589Y2693224D01*
X3212343Y2693259D01*
X3212111Y2693301D01*
X3211893Y2693358D01*
X3211682Y2693428D01*
X3211492Y2693506D01*
X3211316Y2693583D01*
X3211154Y2693667D01*
X3211013Y2693752D01*
X3210880Y2693836D01*
X3210774Y2693907D01*
X3210683Y2693977D01*
X3210612Y2694033D01*
X3210556Y2694083D01*
X3210528Y2694111D01*
X3210514Y2694118D01*
X3210345Y2694294D01*
X3210204Y2694469D01*
X3210078Y2694652D01*
X3209965Y2694842D01*
X3209881Y2695025D01*
X3209803Y2695208D01*
X3209740Y2695384D01*
X3209691Y2695553D01*
X3209648Y2695708D01*
X3209620Y2695848D01*
X3209599Y2695982D01*
X3209585Y2696088D01*
X3209578Y2696179D01*
X3209571Y2696249D01*
Y2696292D01*
Y2696306D01*
X3209578Y2696468D01*
X3209592Y2696622D01*
X3209620Y2696770D01*
X3209648Y2696911D01*
X3209684Y2697044D01*
X3209726Y2697171D01*
X3209775Y2697284D01*
X3209817Y2697389D01*
X3209867Y2697481D01*
X3209916Y2697565D01*
X3209958Y2697643D01*
X3209993Y2697699D01*
X3210021Y2697748D01*
X3210049Y2697783D01*
X3210063Y2697804D01*
X3210070Y2697811D01*
X3210169Y2697924D01*
X3210275Y2698022D01*
X3210380Y2698121D01*
X3210493Y2698199D01*
X3210598Y2698276D01*
X3210711Y2698339D01*
X3210823Y2698395D01*
X3210929Y2698445D01*
X3211028Y2698487D01*
X3211119Y2698522D01*
X3211196Y2698557D01*
X3211267Y2698578D01*
X3211330Y2698593D01*
X3211372Y2698607D01*
X3211400Y2698614D01*
X3211407D01*
X3211281Y2698684D01*
X3211161Y2698761D01*
X3211049Y2698839D01*
X3210943Y2698923D01*
X3210844Y2699001D01*
X3210753Y2699085D01*
X3210591Y2699254D01*
X3210457Y2699430D01*
X3210345Y2699598D01*
X3210254Y2699767D01*
X3210176Y2699922D01*
X3210120Y2700077D01*
X3210078Y2700218D01*
X3210042Y2700337D01*
X3210021Y2700450D01*
X3210007Y2700541D01*
X3210000Y2700605D01*
Y2700647D01*
Y2700661D01*
X3210007Y2700830D01*
X3210028Y2700992D01*
X3210063Y2701147D01*
X3210106Y2701294D01*
X3210162Y2701435D01*
X3210218Y2701569D01*
X3210282Y2701695D01*
X3210345Y2701808D01*
X3210408Y2701913D01*
X3210471Y2702005D01*
X3210528Y2702082D01*
X3210584Y2702152D01*
X3210627Y2702209D01*
X3210662Y2702244D01*
X3210683Y2702272D01*
X3210690Y2702279D01*
X3210852Y2702434D01*
X3211021Y2702568D01*
X3211203Y2702687D01*
X3211386Y2702786D01*
X3211569Y2702870D01*
X3211752Y2702948D01*
X3211928Y2703004D01*
X3212104Y2703046D01*
X3212266Y2703088D01*
X3212414Y2703109D01*
X3212547Y2703130D01*
X3212667Y2703145D01*
X3212758Y2703152D01*
X3212829Y2703159D01*
X3213040D01*
X3213188Y2703145D01*
D02*
G37*
G36*
X3225943Y2730495D02*
Y2728870D01*
X3221961D01*
Y2726914D01*
X3220153D01*
Y2728870D01*
X3218942D01*
Y2730502D01*
X3220153D01*
Y2736687D01*
X3221721D01*
X3225943Y2730495D01*
D02*
G37*
G36*
X3256452Y2744413D02*
X3254946Y2744195D01*
X3254826Y2744322D01*
X3254700Y2744427D01*
X3254573Y2744525D01*
X3254454Y2744603D01*
X3254327Y2744673D01*
X3254207Y2744730D01*
X3254095Y2744779D01*
X3253982Y2744814D01*
X3253884Y2744849D01*
X3253792Y2744870D01*
X3253708Y2744885D01*
X3253637Y2744891D01*
X3253581Y2744898D01*
X3253539Y2744906D01*
X3253504D01*
X3253384Y2744898D01*
X3253271Y2744885D01*
X3253173Y2744863D01*
X3253068Y2744835D01*
X3252892Y2744765D01*
X3252814Y2744723D01*
X3252744Y2744680D01*
X3252681Y2744638D01*
X3252624Y2744596D01*
X3252575Y2744561D01*
X3252533Y2744525D01*
X3252505Y2744497D01*
X3252484Y2744476D01*
X3252469Y2744462D01*
X3252462Y2744455D01*
X3252392Y2744364D01*
X3252329Y2744265D01*
X3252273Y2744167D01*
X3252223Y2744054D01*
X3252188Y2743942D01*
X3252153Y2743829D01*
X3252104Y2743611D01*
X3252090Y2743505D01*
X3252076Y2743414D01*
X3252068Y2743329D01*
X3252061Y2743252D01*
X3252054Y2743189D01*
Y2743147D01*
Y2743111D01*
Y2743104D01*
X3252061Y2742928D01*
X3252068Y2742767D01*
X3252090Y2742612D01*
X3252118Y2742471D01*
X3252146Y2742344D01*
X3252181Y2742225D01*
X3252223Y2742119D01*
X3252259Y2742021D01*
X3252294Y2741937D01*
X3252336Y2741866D01*
X3252371Y2741803D01*
X3252399Y2741754D01*
X3252427Y2741711D01*
X3252441Y2741683D01*
X3252455Y2741669D01*
X3252462Y2741662D01*
X3252540Y2741577D01*
X3252617Y2741507D01*
X3252702Y2741444D01*
X3252786Y2741388D01*
X3252870Y2741346D01*
X3252948Y2741303D01*
X3253103Y2741247D01*
X3253243Y2741219D01*
X3253300Y2741205D01*
X3253349Y2741198D01*
X3253391Y2741191D01*
X3253448D01*
X3253539Y2741198D01*
X3253630Y2741205D01*
X3253806Y2741247D01*
X3253961Y2741303D01*
X3254095Y2741374D01*
X3254200Y2741444D01*
X3254250Y2741472D01*
X3254285Y2741500D01*
X3254313Y2741521D01*
X3254334Y2741542D01*
X3254348Y2741549D01*
X3254355Y2741556D01*
X3254425Y2741627D01*
X3254489Y2741704D01*
X3254587Y2741866D01*
X3254672Y2742035D01*
X3254735Y2742197D01*
X3254777Y2742338D01*
X3254791Y2742401D01*
X3254798Y2742450D01*
X3254813Y2742492D01*
Y2742527D01*
X3254820Y2742549D01*
Y2742556D01*
X3256677Y2742359D01*
X3256642Y2742133D01*
X3256585Y2741929D01*
X3256522Y2741725D01*
X3256452Y2741542D01*
X3256367Y2741367D01*
X3256283Y2741212D01*
X3256198Y2741064D01*
X3256107Y2740930D01*
X3256023Y2740811D01*
X3255938Y2740712D01*
X3255868Y2740621D01*
X3255797Y2740551D01*
X3255741Y2740494D01*
X3255699Y2740452D01*
X3255671Y2740424D01*
X3255664Y2740417D01*
X3255502Y2740290D01*
X3255326Y2740178D01*
X3255143Y2740086D01*
X3254960Y2740002D01*
X3254777Y2739931D01*
X3254594Y2739875D01*
X3254419Y2739826D01*
X3254250Y2739791D01*
X3254088Y2739762D01*
X3253940Y2739734D01*
X3253806Y2739720D01*
X3253694Y2739713D01*
X3253595Y2739706D01*
X3253525Y2739699D01*
X3253469D01*
X3253314Y2739706D01*
X3253159Y2739713D01*
X3252870Y2739755D01*
X3252596Y2739819D01*
X3252343Y2739903D01*
X3252111Y2739995D01*
X3251893Y2740107D01*
X3251696Y2740220D01*
X3251520Y2740346D01*
X3251365Y2740466D01*
X3251224Y2740579D01*
X3251105Y2740691D01*
X3251013Y2740782D01*
X3250936Y2740867D01*
X3250880Y2740930D01*
X3250851Y2740973D01*
X3250837Y2740987D01*
X3250710Y2741169D01*
X3250605Y2741353D01*
X3250514Y2741535D01*
X3250429Y2741718D01*
X3250359Y2741901D01*
X3250302Y2742077D01*
X3250260Y2742253D01*
X3250218Y2742415D01*
X3250190Y2742563D01*
X3250169Y2742704D01*
X3250155Y2742823D01*
X3250148Y2742928D01*
X3250141Y2743013D01*
X3250134Y2743076D01*
Y2743119D01*
Y2743133D01*
X3250141Y2743400D01*
X3250169Y2743646D01*
X3250211Y2743885D01*
X3250267Y2744110D01*
X3250331Y2744315D01*
X3250408Y2744512D01*
X3250486Y2744688D01*
X3250563Y2744849D01*
X3250647Y2744990D01*
X3250725Y2745117D01*
X3250795Y2745229D01*
X3250865Y2745321D01*
X3250922Y2745391D01*
X3250964Y2745440D01*
X3250992Y2745475D01*
X3250999Y2745482D01*
X3251168Y2745644D01*
X3251337Y2745785D01*
X3251513Y2745905D01*
X3251696Y2746010D01*
X3251872Y2746095D01*
X3252047Y2746172D01*
X3252216Y2746228D01*
X3252378Y2746277D01*
X3252526Y2746313D01*
X3252667Y2746341D01*
X3252786Y2746362D01*
X3252899Y2746376D01*
X3252983Y2746383D01*
X3253047Y2746390D01*
X3253222D01*
X3253342Y2746376D01*
X3253581Y2746341D01*
X3253792Y2746292D01*
X3253898Y2746263D01*
X3253989Y2746235D01*
X3254074Y2746200D01*
X3254151Y2746172D01*
X3254214Y2746144D01*
X3254278Y2746123D01*
X3254320Y2746102D01*
X3254355Y2746088D01*
X3254376Y2746081D01*
X3254383Y2746074D01*
X3254081Y2747734D01*
X3250563D01*
Y2749479D01*
X3255495D01*
X3256452Y2744413D01*
D02*
G37*
G36*
X3284393Y2737689D02*
X3284668Y2737654D01*
X3284928Y2737590D01*
X3285174Y2737520D01*
X3285406Y2737428D01*
X3285617Y2737330D01*
X3285807Y2737217D01*
X3285983Y2737112D01*
X3286145Y2736999D01*
X3286279Y2736894D01*
X3286399Y2736788D01*
X3286497Y2736696D01*
X3286574Y2736626D01*
X3286631Y2736563D01*
X3286666Y2736528D01*
X3286680Y2736514D01*
X3286772Y2736401D01*
X3286856Y2736274D01*
X3286933Y2736148D01*
X3287003Y2736007D01*
X3287137Y2735719D01*
X3287250Y2735416D01*
X3287341Y2735092D01*
X3287426Y2734776D01*
X3287489Y2734452D01*
X3287538Y2734142D01*
X3287581Y2733847D01*
X3287616Y2733566D01*
X3287623Y2733439D01*
X3287637Y2733312D01*
X3287644Y2733200D01*
X3287651Y2733094D01*
X3287658Y2732996D01*
Y2732911D01*
Y2732841D01*
X3287665Y2732778D01*
Y2732728D01*
Y2732686D01*
Y2732665D01*
Y2732658D01*
Y2732419D01*
X3287651Y2732187D01*
X3287644Y2731961D01*
X3287623Y2731750D01*
X3287602Y2731539D01*
X3287581Y2731342D01*
X3287552Y2731152D01*
X3287517Y2730970D01*
X3287482Y2730793D01*
X3287447Y2730632D01*
X3287404Y2730470D01*
X3287369Y2730322D01*
X3287327Y2730181D01*
X3287278Y2730048D01*
X3287236Y2729921D01*
X3287194Y2729801D01*
X3287151Y2729689D01*
X3287102Y2729583D01*
X3287060Y2729492D01*
X3287018Y2729400D01*
X3286982Y2729323D01*
X3286940Y2729246D01*
X3286905Y2729182D01*
X3286870Y2729119D01*
X3286835Y2729070D01*
X3286807Y2729027D01*
X3286786Y2728985D01*
X3286765Y2728957D01*
X3286729Y2728915D01*
X3286722Y2728901D01*
X3286539Y2728704D01*
X3286342Y2728528D01*
X3286145Y2728373D01*
X3285941Y2728239D01*
X3285737Y2728134D01*
X3285533Y2728043D01*
X3285343Y2727965D01*
X3285153Y2727902D01*
X3284977Y2727859D01*
X3284815Y2727824D01*
X3284668Y2727796D01*
X3284541Y2727782D01*
X3284435Y2727768D01*
X3284393D01*
X3284358Y2727761D01*
X3284295D01*
X3284041Y2727768D01*
X3283802Y2727803D01*
X3283577Y2727845D01*
X3283366Y2727902D01*
X3283162Y2727972D01*
X3282979Y2728050D01*
X3282810Y2728127D01*
X3282656Y2728211D01*
X3282515Y2728296D01*
X3282395Y2728380D01*
X3282290Y2728451D01*
X3282205Y2728521D01*
X3282135Y2728577D01*
X3282086Y2728626D01*
X3282050Y2728654D01*
X3282043Y2728661D01*
X3281889Y2728838D01*
X3281755Y2729020D01*
X3281635Y2729218D01*
X3281537Y2729414D01*
X3281452Y2729619D01*
X3281375Y2729815D01*
X3281319Y2730013D01*
X3281277Y2730203D01*
X3281234Y2730378D01*
X3281213Y2730540D01*
X3281192Y2730688D01*
X3281178Y2730815D01*
X3281171Y2730920D01*
X3281164Y2730963D01*
Y2730998D01*
Y2731026D01*
Y2731047D01*
Y2731054D01*
Y2731061D01*
X3281171Y2731321D01*
X3281199Y2731567D01*
X3281241Y2731793D01*
X3281298Y2732018D01*
X3281361Y2732215D01*
X3281431Y2732405D01*
X3281501Y2732581D01*
X3281579Y2732742D01*
X3281664Y2732883D01*
X3281734Y2733003D01*
X3281804Y2733108D01*
X3281867Y2733200D01*
X3281924Y2733270D01*
X3281966Y2733319D01*
X3281994Y2733354D01*
X3282001Y2733362D01*
X3282163Y2733517D01*
X3282325Y2733657D01*
X3282494Y2733777D01*
X3282662Y2733875D01*
X3282831Y2733967D01*
X3283000Y2734037D01*
X3283162Y2734093D01*
X3283317Y2734142D01*
X3283458Y2734178D01*
X3283591Y2734206D01*
X3283711Y2734227D01*
X3283809Y2734241D01*
X3283894Y2734248D01*
X3283957Y2734255D01*
X3284006D01*
X3284196Y2734248D01*
X3284379Y2734220D01*
X3284548Y2734178D01*
X3284710Y2734128D01*
X3284865Y2734065D01*
X3285005Y2733995D01*
X3285139Y2733918D01*
X3285259Y2733840D01*
X3285364Y2733763D01*
X3285463Y2733685D01*
X3285547Y2733615D01*
X3285610Y2733552D01*
X3285667Y2733502D01*
X3285702Y2733460D01*
X3285730Y2733432D01*
X3285737Y2733425D01*
X3285716Y2733727D01*
X3285688Y2734002D01*
X3285653Y2734255D01*
X3285610Y2734480D01*
X3285568Y2734684D01*
X3285526Y2734860D01*
X3285484Y2735022D01*
X3285442Y2735163D01*
X3285399Y2735282D01*
X3285357Y2735381D01*
X3285322Y2735458D01*
X3285287Y2735529D01*
X3285259Y2735578D01*
X3285238Y2735606D01*
X3285231Y2735627D01*
X3285223Y2735634D01*
X3285146Y2735726D01*
X3285062Y2735810D01*
X3284977Y2735880D01*
X3284893Y2735944D01*
X3284808Y2735993D01*
X3284731Y2736035D01*
X3284647Y2736077D01*
X3284569Y2736106D01*
X3284499Y2736127D01*
X3284435Y2736141D01*
X3284372Y2736155D01*
X3284323Y2736162D01*
X3284281Y2736169D01*
X3284225D01*
X3284062Y2736155D01*
X3283922Y2736127D01*
X3283795Y2736084D01*
X3283690Y2736035D01*
X3283612Y2735986D01*
X3283549Y2735944D01*
X3283514Y2735916D01*
X3283500Y2735901D01*
X3283401Y2735789D01*
X3283324Y2735662D01*
X3283268Y2735529D01*
X3283218Y2735395D01*
X3283183Y2735275D01*
X3283176Y2735219D01*
X3283162Y2735177D01*
X3283155Y2735135D01*
X3283148Y2735107D01*
Y2735092D01*
Y2735085D01*
X3281340Y2735282D01*
X3281382Y2735493D01*
X3281438Y2735697D01*
X3281501Y2735887D01*
X3281572Y2736056D01*
X3281649Y2736218D01*
X3281727Y2736366D01*
X3281804Y2736500D01*
X3281881Y2736619D01*
X3281959Y2736725D01*
X3282036Y2736816D01*
X3282100Y2736901D01*
X3282156Y2736964D01*
X3282205Y2737013D01*
X3282240Y2737048D01*
X3282268Y2737069D01*
X3282275Y2737076D01*
X3282416Y2737189D01*
X3282564Y2737281D01*
X3282712Y2737365D01*
X3282867Y2737435D01*
X3283021Y2737498D01*
X3283169Y2737548D01*
X3283317Y2737590D01*
X3283465Y2737625D01*
X3283591Y2737654D01*
X3283718Y2737668D01*
X3283824Y2737682D01*
X3283922Y2737696D01*
X3283999D01*
X3284055Y2737703D01*
X3284105D01*
X3284393Y2737689D01*
D02*
G37*
G36*
X3279636Y2674295D02*
X3279714Y2674133D01*
X3279798Y2673978D01*
X3279890Y2673838D01*
X3279988Y2673697D01*
X3280086Y2673570D01*
X3280185Y2673451D01*
X3280276Y2673338D01*
X3280375Y2673239D01*
X3280459Y2673155D01*
X3280537Y2673078D01*
X3280607Y2673014D01*
X3280663Y2672965D01*
X3280713Y2672923D01*
X3280741Y2672902D01*
X3280748Y2672895D01*
X3280910Y2672775D01*
X3281064Y2672662D01*
X3281212Y2672564D01*
X3281360Y2672473D01*
X3281494Y2672388D01*
X3281628Y2672318D01*
X3281747Y2672254D01*
X3281860Y2672191D01*
X3281965Y2672142D01*
X3282057Y2672100D01*
X3282134Y2672072D01*
X3282204Y2672043D01*
X3282261Y2672022D01*
X3282296Y2672008D01*
X3282324Y2671994D01*
X3282331D01*
Y2670298D01*
X3282078Y2670390D01*
X3281831Y2670489D01*
X3281592Y2670601D01*
X3281367Y2670714D01*
X3281156Y2670826D01*
X3280959Y2670946D01*
X3280776Y2671065D01*
X3280607Y2671178D01*
X3280452Y2671284D01*
X3280319Y2671389D01*
X3280199Y2671480D01*
X3280101Y2671558D01*
X3280023Y2671621D01*
X3279967Y2671671D01*
X3279932Y2671699D01*
X3279918Y2671713D01*
Y2664684D01*
X3278053D01*
Y2674457D01*
X3279573D01*
X3279636Y2674295D01*
D02*
G37*
G36*
X3297825Y2701520D02*
X3293582D01*
X3293822Y2701203D01*
X3294054Y2700880D01*
X3294265Y2700556D01*
X3294469Y2700233D01*
X3294652Y2699909D01*
X3294828Y2699599D01*
X3294983Y2699297D01*
X3295130Y2699015D01*
X3295257Y2698748D01*
X3295370Y2698509D01*
X3295419Y2698396D01*
X3295461Y2698298D01*
X3295503Y2698199D01*
X3295545Y2698108D01*
X3295573Y2698030D01*
X3295602Y2697960D01*
X3295630Y2697904D01*
X3295651Y2697847D01*
X3295665Y2697812D01*
X3295679Y2697777D01*
X3295686Y2697763D01*
Y2697756D01*
X3295827Y2697362D01*
X3295946Y2696975D01*
X3296052Y2696595D01*
X3296151Y2696229D01*
X3296228Y2695870D01*
X3296298Y2695533D01*
X3296347Y2695209D01*
X3296397Y2694913D01*
X3296432Y2694639D01*
X3296446Y2694512D01*
X3296460Y2694393D01*
X3296474Y2694280D01*
X3296481Y2694174D01*
X3296488Y2694076D01*
X3296495Y2693992D01*
X3296502Y2693907D01*
X3296509Y2693837D01*
Y2693781D01*
Y2693731D01*
X3296516Y2693689D01*
Y2693661D01*
Y2693647D01*
Y2693640D01*
X3294715D01*
X3294708Y2693886D01*
X3294701Y2694132D01*
X3294680Y2694386D01*
X3294652Y2694639D01*
X3294624Y2694885D01*
X3294589Y2695132D01*
X3294546Y2695364D01*
X3294511Y2695582D01*
X3294469Y2695786D01*
X3294434Y2695976D01*
X3294398Y2696145D01*
X3294363Y2696285D01*
X3294349Y2696349D01*
X3294335Y2696398D01*
X3294328Y2696447D01*
X3294321Y2696489D01*
X3294307Y2696518D01*
Y2696539D01*
X3294300Y2696553D01*
Y2696560D01*
X3294216Y2696862D01*
X3294124Y2697165D01*
X3294026Y2697453D01*
X3293927Y2697735D01*
X3293822Y2698002D01*
X3293716Y2698262D01*
X3293618Y2698502D01*
X3293519Y2698720D01*
X3293420Y2698924D01*
X3293336Y2699107D01*
X3293259Y2699268D01*
X3293188Y2699402D01*
X3293160Y2699459D01*
X3293132Y2699508D01*
X3293111Y2699557D01*
X3293090Y2699592D01*
X3293076Y2699620D01*
X3293062Y2699641D01*
X3293055Y2699648D01*
Y2699655D01*
X3292900Y2699923D01*
X3292752Y2700169D01*
X3292604Y2700401D01*
X3292457Y2700620D01*
X3292316Y2700823D01*
X3292189Y2701006D01*
X3292063Y2701168D01*
X3291943Y2701323D01*
X3291837Y2701457D01*
X3291739Y2701569D01*
X3291655Y2701668D01*
X3291577Y2701745D01*
X3291521Y2701808D01*
X3291479Y2701858D01*
X3291451Y2701886D01*
X3291443Y2701893D01*
Y2703251D01*
X3297825D01*
Y2701520D01*
D02*
G37*
G36*
X3253764Y2692484D02*
X3254003Y2692462D01*
X3254229Y2692427D01*
X3254440Y2692378D01*
X3254630Y2692322D01*
X3254813Y2692266D01*
X3254967Y2692202D01*
X3255115Y2692132D01*
X3255242Y2692068D01*
X3255354Y2691998D01*
X3255453Y2691942D01*
X3255530Y2691886D01*
X3255593Y2691836D01*
X3255636Y2691801D01*
X3255664Y2691780D01*
X3255671Y2691773D01*
X3255804Y2691639D01*
X3255924Y2691492D01*
X3256023Y2691344D01*
X3256107Y2691196D01*
X3256184Y2691041D01*
X3256248Y2690894D01*
X3256297Y2690746D01*
X3256332Y2690612D01*
X3256367Y2690479D01*
X3256389Y2690359D01*
X3256410Y2690253D01*
X3256417Y2690162D01*
X3256424Y2690085D01*
X3256431Y2690028D01*
Y2689993D01*
Y2689979D01*
X3256424Y2689859D01*
X3256417Y2689747D01*
X3256382Y2689529D01*
X3256325Y2689325D01*
X3256297Y2689233D01*
X3256269Y2689149D01*
X3256241Y2689078D01*
X3256212Y2689008D01*
X3256184Y2688945D01*
X3256156Y2688895D01*
X3256135Y2688860D01*
X3256121Y2688825D01*
X3256107Y2688811D01*
Y2688804D01*
X3256044Y2688705D01*
X3255966Y2688614D01*
X3255804Y2688445D01*
X3255629Y2688304D01*
X3255460Y2688185D01*
X3255375Y2688135D01*
X3255305Y2688093D01*
X3255235Y2688051D01*
X3255178Y2688023D01*
X3255129Y2688002D01*
X3255087Y2687981D01*
X3255066Y2687974D01*
X3255059Y2687967D01*
X3255214Y2687896D01*
X3255354Y2687819D01*
X3255481Y2687741D01*
X3255608Y2687657D01*
X3255713Y2687573D01*
X3255818Y2687488D01*
X3255910Y2687404D01*
X3255988Y2687319D01*
X3256058Y2687249D01*
X3256121Y2687172D01*
X3256170Y2687108D01*
X3256212Y2687059D01*
X3256248Y2687010D01*
X3256269Y2686974D01*
X3256283Y2686953D01*
X3256290Y2686946D01*
X3256360Y2686820D01*
X3256417Y2686693D01*
X3256466Y2686566D01*
X3256515Y2686440D01*
X3256585Y2686194D01*
X3256607Y2686081D01*
X3256628Y2685969D01*
X3256642Y2685870D01*
X3256656Y2685779D01*
X3256663Y2685694D01*
X3256670Y2685624D01*
X3256677Y2685567D01*
Y2685525D01*
Y2685497D01*
Y2685490D01*
X3256663Y2685230D01*
X3256635Y2684984D01*
X3256578Y2684751D01*
X3256515Y2684533D01*
X3256438Y2684336D01*
X3256346Y2684153D01*
X3256255Y2683984D01*
X3256156Y2683830D01*
X3256058Y2683696D01*
X3255966Y2683576D01*
X3255875Y2683471D01*
X3255797Y2683386D01*
X3255734Y2683323D01*
X3255678Y2683274D01*
X3255650Y2683246D01*
X3255636Y2683239D01*
X3255467Y2683119D01*
X3255291Y2683006D01*
X3255108Y2682915D01*
X3254918Y2682838D01*
X3254735Y2682767D01*
X3254552Y2682711D01*
X3254369Y2682669D01*
X3254200Y2682627D01*
X3254038Y2682598D01*
X3253891Y2682577D01*
X3253764Y2682563D01*
X3253644Y2682556D01*
X3253553Y2682549D01*
X3253483Y2682542D01*
X3253427D01*
X3253166Y2682549D01*
X3252920Y2682577D01*
X3252688Y2682619D01*
X3252469Y2682676D01*
X3252266Y2682739D01*
X3252076Y2682809D01*
X3251900Y2682880D01*
X3251745Y2682964D01*
X3251611Y2683042D01*
X3251484Y2683112D01*
X3251379Y2683182D01*
X3251295Y2683246D01*
X3251231Y2683302D01*
X3251182Y2683344D01*
X3251147Y2683372D01*
X3251140Y2683379D01*
X3250985Y2683541D01*
X3250851Y2683717D01*
X3250739Y2683893D01*
X3250640Y2684076D01*
X3250556Y2684266D01*
X3250486Y2684442D01*
X3250429Y2684625D01*
X3250380Y2684793D01*
X3250345Y2684955D01*
X3250316Y2685103D01*
X3250302Y2685237D01*
X3250288Y2685349D01*
X3250281Y2685448D01*
X3250274Y2685518D01*
Y2685539D01*
Y2685560D01*
Y2685567D01*
Y2685575D01*
X3250281Y2685722D01*
X3250295Y2685870D01*
X3250316Y2686011D01*
X3250338Y2686144D01*
X3250373Y2686271D01*
X3250408Y2686391D01*
X3250443Y2686496D01*
X3250486Y2686602D01*
X3250528Y2686693D01*
X3250563Y2686771D01*
X3250598Y2686841D01*
X3250633Y2686897D01*
X3250654Y2686946D01*
X3250675Y2686982D01*
X3250689Y2687003D01*
X3250696Y2687010D01*
X3250781Y2687122D01*
X3250872Y2687228D01*
X3250964Y2687333D01*
X3251069Y2687425D01*
X3251168Y2687509D01*
X3251273Y2687587D01*
X3251372Y2687657D01*
X3251471Y2687720D01*
X3251562Y2687777D01*
X3251646Y2687826D01*
X3251724Y2687868D01*
X3251794Y2687903D01*
X3251850Y2687932D01*
X3251893Y2687953D01*
X3251921Y2687960D01*
X3251928Y2687967D01*
X3251703Y2688079D01*
X3251506Y2688206D01*
X3251421Y2688276D01*
X3251337Y2688340D01*
X3251266Y2688410D01*
X3251196Y2688473D01*
X3251140Y2688529D01*
X3251090Y2688586D01*
X3251041Y2688635D01*
X3251006Y2688684D01*
X3250978Y2688719D01*
X3250957Y2688748D01*
X3250950Y2688762D01*
X3250943Y2688769D01*
X3250880Y2688867D01*
X3250823Y2688973D01*
X3250774Y2689078D01*
X3250732Y2689184D01*
X3250668Y2689381D01*
X3250626Y2689571D01*
X3250612Y2689655D01*
X3250605Y2689733D01*
X3250598Y2689803D01*
X3250591Y2689866D01*
X3250584Y2689915D01*
Y2689951D01*
Y2689972D01*
Y2689979D01*
X3250591Y2690176D01*
X3250619Y2690366D01*
X3250654Y2690549D01*
X3250704Y2690717D01*
X3250760Y2690872D01*
X3250830Y2691020D01*
X3250901Y2691161D01*
X3250971Y2691281D01*
X3251041Y2691393D01*
X3251111Y2691492D01*
X3251175Y2691576D01*
X3251238Y2691646D01*
X3251288Y2691703D01*
X3251323Y2691738D01*
X3251351Y2691766D01*
X3251358Y2691773D01*
X3251506Y2691900D01*
X3251667Y2692012D01*
X3251843Y2692104D01*
X3252019Y2692188D01*
X3252195Y2692259D01*
X3252378Y2692315D01*
X3252554Y2692364D01*
X3252723Y2692399D01*
X3252885Y2692427D01*
X3253033Y2692455D01*
X3253166Y2692469D01*
X3253279Y2692477D01*
X3253377Y2692484D01*
X3253448Y2692491D01*
X3253511D01*
X3253764Y2692484D01*
D02*
G37*
G36*
X3270823Y2763244D02*
X3271006Y2763221D01*
X3271091Y2763207D01*
X3271171Y2763188D01*
X3271246Y2763174D01*
X3271317Y2763155D01*
X3271378Y2763136D01*
X3271434Y2763117D01*
X3271481Y2763099D01*
X3271523Y2763085D01*
X3271556Y2763070D01*
X3271580Y2763061D01*
X3271594Y2763056D01*
X3271599Y2763052D01*
X3271754Y2762972D01*
X3271819Y2762925D01*
X3271885Y2762878D01*
X3271946Y2762836D01*
X3272003Y2762789D01*
X3272054Y2762742D01*
X3272097Y2762699D01*
X3272139Y2762657D01*
X3272177Y2762619D01*
X3272205Y2762586D01*
X3272228Y2762554D01*
X3272252Y2762530D01*
X3272266Y2762511D01*
X3272271Y2762502D01*
X3272275Y2762497D01*
X3272318Y2762427D01*
X3272360Y2762356D01*
X3272430Y2762201D01*
X3272491Y2762041D01*
X3272543Y2761891D01*
X3272567Y2761825D01*
X3272581Y2761760D01*
X3272599Y2761703D01*
X3272609Y2761651D01*
X3272618Y2761609D01*
X3272628Y2761581D01*
X3272632Y2761557D01*
Y2761553D01*
X3271486Y2761360D01*
X3271476Y2761435D01*
X3271462Y2761511D01*
X3271443Y2761576D01*
X3271425Y2761637D01*
X3271401Y2761698D01*
X3271378Y2761750D01*
X3271354Y2761797D01*
X3271331Y2761839D01*
X3271307Y2761877D01*
X3271288Y2761910D01*
X3271265Y2761938D01*
X3271251Y2761962D01*
X3271232Y2761980D01*
X3271223Y2761995D01*
X3271218Y2761999D01*
X3271213Y2762004D01*
X3271171Y2762041D01*
X3271124Y2762079D01*
X3271030Y2762135D01*
X3270936Y2762173D01*
X3270851Y2762201D01*
X3270776Y2762220D01*
X3270743Y2762225D01*
X3270715D01*
X3270696Y2762229D01*
X3270663D01*
X3270546Y2762220D01*
X3270447Y2762196D01*
X3270358Y2762168D01*
X3270283Y2762131D01*
X3270222Y2762093D01*
X3270180Y2762065D01*
X3270151Y2762041D01*
X3270142Y2762032D01*
X3270076Y2761952D01*
X3270029Y2761868D01*
X3269991Y2761783D01*
X3269968Y2761698D01*
X3269954Y2761623D01*
X3269949Y2761595D01*
Y2761567D01*
X3269944Y2761543D01*
Y2761525D01*
Y2761515D01*
Y2761511D01*
X3269949Y2761440D01*
X3269954Y2761374D01*
X3269968Y2761308D01*
X3269987Y2761252D01*
X3270029Y2761144D01*
X3270076Y2761055D01*
X3270104Y2761017D01*
X3270128Y2760984D01*
X3270151Y2760956D01*
X3270170Y2760933D01*
X3270189Y2760914D01*
X3270203Y2760900D01*
X3270208Y2760895D01*
X3270212Y2760890D01*
X3270264Y2760848D01*
X3270321Y2760815D01*
X3270381Y2760787D01*
X3270447Y2760759D01*
X3270574Y2760721D01*
X3270701Y2760698D01*
X3270758Y2760688D01*
X3270814Y2760683D01*
X3270861Y2760679D01*
X3270903Y2760674D01*
X3270988D01*
X3271124Y2759659D01*
X3271006Y2759692D01*
X3270898Y2759715D01*
X3270800Y2759730D01*
X3270715Y2759744D01*
X3270649Y2759748D01*
X3270621D01*
X3270598Y2759753D01*
X3270555D01*
X3270490Y2759748D01*
X3270424Y2759739D01*
X3270363Y2759730D01*
X3270306Y2759711D01*
X3270203Y2759664D01*
X3270114Y2759617D01*
X3270038Y2759565D01*
X3270010Y2759542D01*
X3269987Y2759518D01*
X3269963Y2759499D01*
X3269949Y2759490D01*
X3269944Y2759481D01*
X3269940Y2759476D01*
X3269893Y2759424D01*
X3269855Y2759363D01*
X3269822Y2759302D01*
X3269794Y2759241D01*
X3269747Y2759119D01*
X3269719Y2758997D01*
X3269705Y2758945D01*
X3269700Y2758893D01*
X3269696Y2758846D01*
X3269691Y2758809D01*
X3269686Y2758776D01*
Y2758747D01*
Y2758733D01*
Y2758729D01*
X3269691Y2758640D01*
X3269696Y2758550D01*
X3269710Y2758470D01*
X3269728Y2758395D01*
X3269747Y2758325D01*
X3269771Y2758259D01*
X3269794Y2758203D01*
X3269818Y2758146D01*
X3269846Y2758099D01*
X3269869Y2758057D01*
X3269893Y2758024D01*
X3269912Y2757991D01*
X3269930Y2757968D01*
X3269944Y2757953D01*
X3269949Y2757944D01*
X3269954Y2757939D01*
X3270006Y2757888D01*
X3270057Y2757845D01*
X3270109Y2757803D01*
X3270165Y2757770D01*
X3270222Y2757742D01*
X3270274Y2757719D01*
X3270377Y2757686D01*
X3270466Y2757662D01*
X3270504Y2757657D01*
X3270537Y2757653D01*
X3270565Y2757648D01*
X3270602D01*
X3270668Y2757653D01*
X3270729Y2757657D01*
X3270847Y2757686D01*
X3270950Y2757723D01*
X3271039Y2757770D01*
X3271115Y2757812D01*
X3271143Y2757831D01*
X3271166Y2757850D01*
X3271185Y2757864D01*
X3271199Y2757878D01*
X3271209Y2757883D01*
X3271213Y2757888D01*
X3271256Y2757935D01*
X3271298Y2757986D01*
X3271364Y2758104D01*
X3271420Y2758221D01*
X3271458Y2758334D01*
X3271476Y2758386D01*
X3271486Y2758437D01*
X3271500Y2758480D01*
X3271505Y2758522D01*
X3271514Y2758555D01*
Y2758578D01*
X3271519Y2758593D01*
Y2758597D01*
X3272726Y2758447D01*
X3272703Y2758296D01*
X3272670Y2758156D01*
X3272632Y2758019D01*
X3272585Y2757897D01*
X3272529Y2757780D01*
X3272473Y2757667D01*
X3272416Y2757568D01*
X3272355Y2757479D01*
X3272299Y2757399D01*
X3272242Y2757324D01*
X3272191Y2757263D01*
X3272148Y2757216D01*
X3272111Y2757173D01*
X3272078Y2757145D01*
X3272059Y2757126D01*
X3272054Y2757122D01*
X3271942Y2757032D01*
X3271824Y2756953D01*
X3271702Y2756887D01*
X3271580Y2756830D01*
X3271458Y2756779D01*
X3271335Y2756736D01*
X3271218Y2756703D01*
X3271105Y2756680D01*
X3270997Y2756656D01*
X3270903Y2756642D01*
X3270814Y2756628D01*
X3270739Y2756624D01*
X3270678Y2756619D01*
X3270631Y2756614D01*
X3270593D01*
X3270424Y2756619D01*
X3270259Y2756642D01*
X3270104Y2756671D01*
X3269959Y2756708D01*
X3269818Y2756755D01*
X3269691Y2756807D01*
X3269573Y2756859D01*
X3269465Y2756915D01*
X3269371Y2756971D01*
X3269282Y2757028D01*
X3269212Y2757075D01*
X3269150Y2757122D01*
X3269103Y2757159D01*
X3269066Y2757192D01*
X3269047Y2757211D01*
X3269038Y2757216D01*
X3268925Y2757333D01*
X3268831Y2757451D01*
X3268746Y2757573D01*
X3268671Y2757700D01*
X3268615Y2757822D01*
X3268563Y2757944D01*
X3268521Y2758062D01*
X3268488Y2758174D01*
X3268460Y2758278D01*
X3268441Y2758372D01*
X3268427Y2758461D01*
X3268417Y2758531D01*
X3268413Y2758593D01*
X3268408Y2758640D01*
Y2758668D01*
Y2758677D01*
X3268413Y2758785D01*
X3268422Y2758889D01*
X3268441Y2758987D01*
X3268460Y2759081D01*
X3268483Y2759171D01*
X3268511Y2759255D01*
X3268544Y2759330D01*
X3268572Y2759401D01*
X3268605Y2759462D01*
X3268638Y2759518D01*
X3268666Y2759570D01*
X3268690Y2759608D01*
X3268709Y2759640D01*
X3268728Y2759664D01*
X3268737Y2759678D01*
X3268742Y2759683D01*
X3268807Y2759758D01*
X3268878Y2759824D01*
X3268948Y2759889D01*
X3269024Y2759941D01*
X3269094Y2759993D01*
X3269169Y2760035D01*
X3269244Y2760073D01*
X3269315Y2760106D01*
X3269381Y2760134D01*
X3269442Y2760157D01*
X3269493Y2760181D01*
X3269540Y2760195D01*
X3269583Y2760204D01*
X3269611Y2760214D01*
X3269630Y2760218D01*
X3269634D01*
X3269550Y2760265D01*
X3269470Y2760317D01*
X3269395Y2760369D01*
X3269324Y2760425D01*
X3269259Y2760477D01*
X3269197Y2760533D01*
X3269089Y2760646D01*
X3269000Y2760763D01*
X3268925Y2760876D01*
X3268864Y2760989D01*
X3268812Y2761092D01*
X3268775Y2761196D01*
X3268746Y2761290D01*
X3268723Y2761370D01*
X3268709Y2761445D01*
X3268699Y2761506D01*
X3268695Y2761548D01*
Y2761576D01*
Y2761586D01*
X3268699Y2761698D01*
X3268713Y2761807D01*
X3268737Y2761910D01*
X3268765Y2762008D01*
X3268803Y2762102D01*
X3268840Y2762192D01*
X3268883Y2762276D01*
X3268925Y2762352D01*
X3268967Y2762422D01*
X3269009Y2762483D01*
X3269047Y2762535D01*
X3269085Y2762582D01*
X3269113Y2762619D01*
X3269136Y2762643D01*
X3269150Y2762662D01*
X3269155Y2762666D01*
X3269263Y2762770D01*
X3269376Y2762859D01*
X3269498Y2762939D01*
X3269620Y2763005D01*
X3269743Y2763061D01*
X3269865Y2763113D01*
X3269982Y2763150D01*
X3270100Y2763179D01*
X3270208Y2763207D01*
X3270306Y2763221D01*
X3270396Y2763235D01*
X3270475Y2763244D01*
X3270537Y2763249D01*
X3270584Y2763254D01*
X3270725D01*
X3270823Y2763244D01*
D02*
G37*
G36*
X3275118Y2759025D02*
Y2758884D01*
X3275128Y2758752D01*
X3275137Y2758635D01*
X3275146Y2758531D01*
X3275161Y2758433D01*
X3275175Y2758348D01*
X3275193Y2758273D01*
X3275208Y2758212D01*
X3275226Y2758156D01*
X3275245Y2758109D01*
X3275259Y2758066D01*
X3275273Y2758038D01*
X3275283Y2758015D01*
X3275292Y2758000D01*
X3275302Y2757991D01*
Y2757986D01*
X3275339Y2757944D01*
X3275381Y2757906D01*
X3275428Y2757869D01*
X3275475Y2757841D01*
X3275579Y2757798D01*
X3275682Y2757770D01*
X3275771Y2757751D01*
X3275814Y2757747D01*
X3275851Y2757742D01*
X3275880Y2757737D01*
X3275922D01*
X3276002Y2757742D01*
X3276072Y2757751D01*
X3276143Y2757770D01*
X3276204Y2757794D01*
X3276265Y2757817D01*
X3276317Y2757845D01*
X3276364Y2757878D01*
X3276406Y2757911D01*
X3276448Y2757944D01*
X3276481Y2757977D01*
X3276505Y2758005D01*
X3276528Y2758029D01*
X3276547Y2758052D01*
X3276561Y2758071D01*
X3276566Y2758080D01*
X3276570Y2758085D01*
X3276594Y2758132D01*
X3276617Y2758184D01*
X3276636Y2758245D01*
X3276655Y2758306D01*
X3276683Y2758437D01*
X3276702Y2758569D01*
X3276711Y2758630D01*
X3276716Y2758687D01*
X3276721Y2758743D01*
X3276725Y2758790D01*
Y2758827D01*
X3276730Y2758856D01*
Y2758874D01*
Y2758879D01*
X3277966Y2758738D01*
X3277961Y2758546D01*
X3277942Y2758367D01*
X3277919Y2758203D01*
X3277886Y2758047D01*
X3277844Y2757906D01*
X3277802Y2757775D01*
X3277755Y2757657D01*
X3277708Y2757549D01*
X3277661Y2757455D01*
X3277614Y2757375D01*
X3277567Y2757310D01*
X3277529Y2757249D01*
X3277496Y2757206D01*
X3277473Y2757173D01*
X3277454Y2757155D01*
X3277449Y2757150D01*
X3277346Y2757056D01*
X3277238Y2756971D01*
X3277120Y2756901D01*
X3276998Y2756840D01*
X3276871Y2756788D01*
X3276749Y2756746D01*
X3276627Y2756708D01*
X3276509Y2756680D01*
X3276401Y2756661D01*
X3276298Y2756642D01*
X3276204Y2756633D01*
X3276124Y2756624D01*
X3276058Y2756619D01*
X3276006Y2756614D01*
X3275964D01*
X3275814Y2756619D01*
X3275673Y2756628D01*
X3275536Y2756647D01*
X3275410Y2756666D01*
X3275292Y2756694D01*
X3275184Y2756722D01*
X3275085Y2756755D01*
X3274996Y2756788D01*
X3274916Y2756816D01*
X3274846Y2756849D01*
X3274785Y2756877D01*
X3274733Y2756906D01*
X3274695Y2756924D01*
X3274667Y2756943D01*
X3274648Y2756953D01*
X3274644Y2756957D01*
X3274554Y2757023D01*
X3274470Y2757094D01*
X3274395Y2757169D01*
X3274324Y2757244D01*
X3274258Y2757319D01*
X3274202Y2757394D01*
X3274155Y2757469D01*
X3274108Y2757540D01*
X3274070Y2757610D01*
X3274037Y2757672D01*
X3274014Y2757728D01*
X3273990Y2757775D01*
X3273972Y2757812D01*
X3273962Y2757845D01*
X3273953Y2757864D01*
Y2757869D01*
X3273929Y2757953D01*
X3273906Y2758047D01*
X3273887Y2758146D01*
X3273868Y2758245D01*
X3273845Y2758452D01*
X3273831Y2758555D01*
X3273826Y2758654D01*
X3273821Y2758743D01*
X3273817Y2758832D01*
X3273812Y2758907D01*
X3273807Y2758978D01*
Y2759034D01*
Y2759072D01*
Y2759100D01*
Y2759109D01*
Y2763230D01*
X3275118D01*
Y2759025D01*
D02*
G37*
%LPC*%
G36*
X2963887Y2821745D02*
X2963859D01*
X2963845D01*
X2963838D01*
X2963683Y2821738D01*
X2963542Y2821717D01*
X2963416Y2821682D01*
X2963310Y2821647D01*
X2963226Y2821604D01*
X2963163Y2821576D01*
X2963120Y2821548D01*
X2963106Y2821541D01*
X2963001Y2821464D01*
X2962916Y2821372D01*
X2962846Y2821281D01*
X2962790Y2821196D01*
X2962747Y2821112D01*
X2962712Y2821049D01*
X2962698Y2821006D01*
X2962691Y2820999D01*
Y2820992D01*
X2962670Y2820915D01*
X2962656Y2820816D01*
X2962642Y2820697D01*
X2962628Y2820570D01*
X2962614Y2820429D01*
X2962607Y2820282D01*
X2962592Y2819979D01*
X2962585Y2819832D01*
Y2819564D01*
X2962579Y2819451D01*
Y2817777D01*
X2965048D01*
Y2819881D01*
X2965041Y2820035D01*
Y2820169D01*
X2965034Y2820282D01*
Y2820471D01*
X2965027Y2820542D01*
Y2820598D01*
X2965020Y2820648D01*
Y2820683D01*
X2965013Y2820711D01*
Y2820739D01*
X2964971Y2820908D01*
X2964915Y2821056D01*
X2964851Y2821182D01*
X2964788Y2821288D01*
X2964724Y2821372D01*
X2964675Y2821429D01*
X2964640Y2821464D01*
X2964633Y2821478D01*
X2964626D01*
X2964507Y2821569D01*
X2964380Y2821632D01*
X2964246Y2821682D01*
X2964119Y2821710D01*
X2964007Y2821731D01*
X2963965Y2821738D01*
X2963922D01*
X2963887Y2821745D01*
D02*
G37*
G36*
X2940011Y2821999D02*
X2939983D01*
X2939969D01*
X2939962D01*
X2939807Y2821992D01*
X2939666Y2821971D01*
X2939540Y2821936D01*
X2939434Y2821901D01*
X2939350Y2821859D01*
X2939286Y2821830D01*
X2939244Y2821802D01*
X2939230Y2821795D01*
X2939125Y2821718D01*
X2939040Y2821626D01*
X2938970Y2821535D01*
X2938914Y2821450D01*
X2938871Y2821366D01*
X2938836Y2821302D01*
X2938822Y2821260D01*
X2938815Y2821253D01*
Y2821246D01*
X2938794Y2821169D01*
X2938780Y2821070D01*
X2938766Y2820951D01*
X2938752Y2820824D01*
X2938738Y2820683D01*
X2938731Y2820536D01*
X2938717Y2820233D01*
X2938710Y2820085D01*
Y2819818D01*
X2938703Y2819706D01*
Y2818031D01*
X2941172D01*
Y2820135D01*
X2941165Y2820289D01*
Y2820423D01*
X2941158Y2820536D01*
Y2820726D01*
X2941151Y2820796D01*
Y2820852D01*
X2941144Y2820901D01*
Y2820937D01*
X2941137Y2820965D01*
Y2820993D01*
X2941095Y2821162D01*
X2941039Y2821310D01*
X2940975Y2821436D01*
X2940912Y2821542D01*
X2940848Y2821626D01*
X2940799Y2821682D01*
X2940764Y2821718D01*
X2940757Y2821732D01*
X2940750D01*
X2940630Y2821823D01*
X2940504Y2821887D01*
X2940370Y2821936D01*
X2940244Y2821964D01*
X2940131Y2821985D01*
X2940089Y2821992D01*
X2940046D01*
X2940011Y2821999D01*
D02*
G37*
G36*
X2940271Y2715609D02*
X2926459D01*
X2925871Y2715492D01*
X2925342Y2715433D01*
X2924872Y2715256D01*
X2924519Y2715139D01*
X2924225Y2714962D01*
X2923755Y2714551D01*
X2923461Y2714140D01*
X2923344Y2713846D01*
X2923285Y2713611D01*
Y2713493D01*
Y2712024D01*
Y2711906D01*
X2923344Y2711730D01*
X2923461Y2711436D01*
X2923579Y2711142D01*
X2923932Y2710378D01*
X2924343Y2709438D01*
X2924872Y2708380D01*
X2925460Y2707145D01*
X2926106Y2705911D01*
X2926753Y2704677D01*
X2927399Y2703384D01*
X2928046Y2702149D01*
X2928634Y2701033D01*
X2929163Y2700034D01*
X2929574Y2699211D01*
X2929927Y2698564D01*
X2930044Y2698329D01*
X2930162Y2698153D01*
X2930221Y2698035D01*
Y2697976D01*
X2930573Y2697095D01*
X2931102Y2696331D01*
X2931749Y2695684D01*
X2932572Y2695096D01*
X2933512Y2694626D01*
X2934453Y2694215D01*
X2935510Y2693862D01*
X2936509Y2693627D01*
X2937567Y2693392D01*
X2938508Y2693275D01*
X2939390Y2693157D01*
X2940212Y2693039D01*
X2940918D01*
X2941388Y2692981D01*
X2949969Y2692981D01*
X2951027Y2693039D01*
X2952026Y2693098D01*
X2952849Y2693216D01*
X2953554Y2693392D01*
X2954142Y2693568D01*
X2954612Y2693803D01*
X2955024Y2694038D01*
X2955377Y2694332D01*
X2955612Y2694568D01*
X2955788Y2694803D01*
X2956023Y2695214D01*
X2956141Y2695508D01*
Y2695626D01*
Y2695802D01*
X2956082Y2696096D01*
X2955847Y2696742D01*
X2955553Y2697624D01*
X2955083Y2698623D01*
X2954612Y2699740D01*
X2954025Y2700974D01*
X2952791Y2703501D01*
X2952202Y2704795D01*
X2951615Y2706029D01*
X2951027Y2707145D01*
X2950557Y2708145D01*
X2950087Y2708968D01*
X2949793Y2709614D01*
X2949675Y2709849D01*
X2949558Y2710026D01*
X2949499Y2710084D01*
Y2710143D01*
X2948970Y2711083D01*
X2948382Y2711965D01*
X2947677Y2712670D01*
X2946972Y2713317D01*
X2946149Y2713846D01*
X2945385Y2714257D01*
X2944562Y2714610D01*
X2943798Y2714904D01*
X2943034Y2715139D01*
X2942328Y2715315D01*
X2941682Y2715433D01*
X2941094Y2715551D01*
X2940624D01*
X2940271Y2715609D01*
D02*
G37*
G36*
X3155398Y2672104D02*
X3148258D01*
Y2669725D01*
Y2667345D01*
X3150638D01*
Y2666155D01*
Y2664965D01*
X3155398D01*
Y2668535D01*
Y2672104D01*
D02*
G37*
G36*
X3117322D02*
X3112562D01*
Y2670914D01*
Y2669725D01*
X3110183D01*
Y2666155D01*
Y2662585D01*
X3112562D01*
Y2661396D01*
Y2660206D01*
X3117322D01*
Y2666155D01*
Y2672104D01*
D02*
G37*
G36*
X3139837Y2648580D02*
X3133665D01*
Y2646523D01*
Y2644466D01*
X3139837D01*
Y2646523D01*
Y2648580D01*
D02*
G37*
G36*
Y2642408D02*
X3133665D01*
Y2640351D01*
Y2638293D01*
X3139837D01*
Y2640351D01*
Y2642408D01*
D02*
G37*
G36*
X3088402Y2646523D02*
X3086345Y2646523D01*
Y2644466D01*
Y2642408D01*
X3090459Y2642408D01*
Y2643437D01*
Y2644466D01*
X3088402D01*
Y2645494D01*
Y2646523D01*
D02*
G37*
G36*
X3057541Y2648580D02*
X3051369D01*
Y2646523D01*
Y2644466D01*
X3057541D01*
Y2646523D01*
Y2648580D01*
D02*
G37*
G36*
Y2642408D02*
X3051369D01*
Y2640351D01*
Y2638293D01*
X3057541D01*
Y2640351D01*
Y2642408D01*
D02*
G37*
G36*
X2973188Y2648580D02*
X2971130D01*
Y2647552D01*
Y2646523D01*
X2969073D01*
Y2644466D01*
Y2642408D01*
X2975245D01*
Y2644466D01*
Y2646523D01*
X2973188D01*
Y2647552D01*
Y2648580D01*
D02*
G37*
G36*
X3139583Y2626736D02*
X3133411D01*
Y2624679D01*
Y2622621D01*
X3139583D01*
Y2624679D01*
Y2626736D01*
D02*
G37*
G36*
Y2620564D02*
X3133411D01*
Y2618507D01*
Y2616449D01*
X3139583D01*
Y2618507D01*
Y2620564D01*
D02*
G37*
G36*
X3088148Y2624679D02*
X3086091Y2624679D01*
Y2622621D01*
Y2620564D01*
X3090205Y2620564D01*
Y2621593D01*
Y2622621D01*
X3088148D01*
Y2623650D01*
Y2624679D01*
D02*
G37*
G36*
X3057287Y2626736D02*
X3051115D01*
Y2624679D01*
Y2622621D01*
X3057287D01*
Y2624679D01*
Y2626736D01*
D02*
G37*
G36*
Y2620564D02*
X3051115D01*
Y2618507D01*
Y2616449D01*
X3057287D01*
Y2618507D01*
Y2620564D01*
D02*
G37*
G36*
X3007910Y2626736D02*
X3001737D01*
Y2623650D01*
Y2620564D01*
X3007910D01*
Y2623650D01*
Y2626736D01*
D02*
G37*
G36*
X2974991D02*
X2968819D01*
Y2624679D01*
Y2622621D01*
X2974991D01*
Y2624679D01*
Y2626736D01*
D02*
G37*
G36*
Y2620564D02*
X2968819D01*
Y2618507D01*
Y2616449D01*
X2974991D01*
Y2618507D01*
Y2620564D01*
D02*
G37*
G36*
X3221961Y2733823D02*
Y2730502D01*
X3224198D01*
X3221961Y2733823D01*
D02*
G37*
G36*
X3284344Y2732883D02*
X3284295D01*
X3284189Y2732876D01*
X3284098Y2732862D01*
X3283999Y2732841D01*
X3283915Y2732813D01*
X3283753Y2732742D01*
X3283619Y2732665D01*
X3283563Y2732623D01*
X3283514Y2732581D01*
X3283472Y2732545D01*
X3283429Y2732510D01*
X3283401Y2732482D01*
X3283380Y2732461D01*
X3283373Y2732447D01*
X3283366Y2732440D01*
X3283303Y2732348D01*
X3283239Y2732250D01*
X3283190Y2732144D01*
X3283148Y2732032D01*
X3283085Y2731800D01*
X3283042Y2731574D01*
X3283021Y2731469D01*
X3283014Y2731364D01*
X3283007Y2731272D01*
X3283000Y2731194D01*
X3282993Y2731131D01*
Y2731082D01*
Y2731054D01*
Y2731040D01*
X3283000Y2730871D01*
X3283007Y2730716D01*
X3283028Y2730575D01*
X3283050Y2730442D01*
X3283078Y2730322D01*
X3283106Y2730217D01*
X3283134Y2730118D01*
X3283169Y2730027D01*
X3283204Y2729956D01*
X3283232Y2729886D01*
X3283260Y2729830D01*
X3283289Y2729787D01*
X3283310Y2729752D01*
X3283331Y2729731D01*
X3283338Y2729717D01*
X3283345Y2729710D01*
X3283408Y2729640D01*
X3283479Y2729576D01*
X3283549Y2729527D01*
X3283626Y2729478D01*
X3283697Y2729443D01*
X3283767Y2729407D01*
X3283901Y2729358D01*
X3284020Y2729330D01*
X3284077Y2729323D01*
X3284119Y2729316D01*
X3284154Y2729309D01*
X3284203D01*
X3284302Y2729316D01*
X3284400Y2729330D01*
X3284492Y2729351D01*
X3284583Y2729386D01*
X3284745Y2729464D01*
X3284886Y2729555D01*
X3284949Y2729604D01*
X3284998Y2729647D01*
X3285048Y2729689D01*
X3285090Y2729724D01*
X3285118Y2729759D01*
X3285139Y2729780D01*
X3285153Y2729794D01*
X3285160Y2729801D01*
X3285231Y2729900D01*
X3285294Y2730005D01*
X3285350Y2730111D01*
X3285399Y2730231D01*
X3285442Y2730343D01*
X3285477Y2730463D01*
X3285526Y2730688D01*
X3285540Y2730793D01*
X3285554Y2730892D01*
X3285561Y2730984D01*
X3285568Y2731061D01*
X3285575Y2731124D01*
Y2731166D01*
Y2731201D01*
Y2731208D01*
X3285568Y2731357D01*
X3285561Y2731497D01*
X3285540Y2731631D01*
X3285519Y2731750D01*
X3285491Y2731863D01*
X3285463Y2731961D01*
X3285428Y2732060D01*
X3285392Y2732137D01*
X3285357Y2732215D01*
X3285322Y2732278D01*
X3285294Y2732334D01*
X3285266Y2732377D01*
X3285245Y2732412D01*
X3285223Y2732433D01*
X3285216Y2732447D01*
X3285209Y2732454D01*
X3285139Y2732531D01*
X3285062Y2732595D01*
X3284984Y2732651D01*
X3284907Y2732700D01*
X3284829Y2732742D01*
X3284759Y2732778D01*
X3284612Y2732827D01*
X3284485Y2732862D01*
X3284428Y2732869D01*
X3284386Y2732876D01*
X3284344Y2732883D01*
D02*
G37*
G36*
X3253539Y2691013D02*
X3253391D01*
X3253307Y2690999D01*
X3253138Y2690964D01*
X3252997Y2690915D01*
X3252878Y2690858D01*
X3252779Y2690795D01*
X3252709Y2690746D01*
X3252688Y2690725D01*
X3252667Y2690710D01*
X3252653Y2690704D01*
Y2690696D01*
X3252596Y2690633D01*
X3252547Y2690570D01*
X3252469Y2690429D01*
X3252413Y2690288D01*
X3252378Y2690155D01*
X3252350Y2690035D01*
X3252343Y2689986D01*
Y2689937D01*
X3252336Y2689901D01*
Y2689873D01*
Y2689859D01*
Y2689852D01*
Y2689747D01*
X3252350Y2689655D01*
X3252385Y2689479D01*
X3252441Y2689325D01*
X3252498Y2689205D01*
X3252554Y2689099D01*
X3252610Y2689029D01*
X3252632Y2689008D01*
X3252645Y2688987D01*
X3252653Y2688980D01*
X3252660Y2688973D01*
X3252723Y2688917D01*
X3252786Y2688874D01*
X3252927Y2688797D01*
X3253068Y2688741D01*
X3253201Y2688705D01*
X3253328Y2688677D01*
X3253377Y2688670D01*
X3253419D01*
X3253462Y2688663D01*
X3253511D01*
X3253609Y2688670D01*
X3253701Y2688677D01*
X3253863Y2688712D01*
X3254010Y2688762D01*
X3254130Y2688818D01*
X3254229Y2688874D01*
X3254299Y2688924D01*
X3254320Y2688945D01*
X3254341Y2688959D01*
X3254348Y2688973D01*
X3254355D01*
X3254411Y2689036D01*
X3254454Y2689099D01*
X3254531Y2689240D01*
X3254587Y2689388D01*
X3254622Y2689529D01*
X3254651Y2689648D01*
X3254658Y2689705D01*
Y2689754D01*
X3254665Y2689789D01*
Y2689824D01*
Y2689838D01*
Y2689845D01*
X3254658Y2689944D01*
X3254651Y2690035D01*
X3254615Y2690197D01*
X3254566Y2690345D01*
X3254503Y2690464D01*
X3254447Y2690563D01*
X3254397Y2690633D01*
X3254376Y2690654D01*
X3254362Y2690675D01*
X3254348Y2690689D01*
X3254285Y2690746D01*
X3254221Y2690795D01*
X3254081Y2690880D01*
X3253940Y2690936D01*
X3253799Y2690971D01*
X3253680Y2690999D01*
X3253623Y2691006D01*
X3253581D01*
X3253539Y2691013D01*
D02*
G37*
G36*
X3253546Y2687172D02*
X3253483D01*
X3253377Y2687165D01*
X3253271Y2687151D01*
X3253173Y2687130D01*
X3253082Y2687108D01*
X3252913Y2687038D01*
X3252772Y2686960D01*
X3252709Y2686918D01*
X3252660Y2686883D01*
X3252610Y2686848D01*
X3252575Y2686813D01*
X3252547Y2686792D01*
X3252519Y2686771D01*
X3252512Y2686757D01*
X3252505Y2686749D01*
X3252434Y2686672D01*
X3252378Y2686581D01*
X3252322Y2686496D01*
X3252280Y2686405D01*
X3252209Y2686222D01*
X3252167Y2686046D01*
X3252153Y2685961D01*
X3252139Y2685891D01*
X3252132Y2685821D01*
X3252125Y2685764D01*
X3252118Y2685715D01*
Y2685680D01*
Y2685659D01*
Y2685652D01*
X3252125Y2685511D01*
X3252132Y2685378D01*
X3252153Y2685251D01*
X3252174Y2685138D01*
X3252202Y2685026D01*
X3252238Y2684927D01*
X3252273Y2684843D01*
X3252308Y2684758D01*
X3252343Y2684688D01*
X3252378Y2684632D01*
X3252406Y2684576D01*
X3252441Y2684533D01*
X3252462Y2684498D01*
X3252484Y2684477D01*
X3252491Y2684463D01*
X3252498Y2684456D01*
X3252568Y2684385D01*
X3252645Y2684322D01*
X3252730Y2684266D01*
X3252807Y2684217D01*
X3252892Y2684174D01*
X3252969Y2684139D01*
X3253124Y2684090D01*
X3253258Y2684062D01*
X3253314Y2684055D01*
X3253363Y2684048D01*
X3253405Y2684041D01*
X3253462D01*
X3253567Y2684048D01*
X3253673Y2684062D01*
X3253771Y2684083D01*
X3253863Y2684111D01*
X3254031Y2684174D01*
X3254172Y2684259D01*
X3254236Y2684294D01*
X3254292Y2684336D01*
X3254334Y2684371D01*
X3254376Y2684406D01*
X3254404Y2684427D01*
X3254425Y2684449D01*
X3254440Y2684463D01*
X3254447Y2684470D01*
X3254517Y2684554D01*
X3254573Y2684646D01*
X3254630Y2684737D01*
X3254672Y2684836D01*
X3254742Y2685040D01*
X3254791Y2685230D01*
X3254805Y2685321D01*
X3254820Y2685406D01*
X3254826Y2685483D01*
X3254834Y2685546D01*
X3254841Y2685596D01*
Y2685638D01*
Y2685666D01*
Y2685673D01*
X3254834Y2685779D01*
X3254826Y2685877D01*
X3254791Y2686067D01*
X3254735Y2686236D01*
X3254672Y2686391D01*
X3254644Y2686454D01*
X3254615Y2686517D01*
X3254587Y2686566D01*
X3254559Y2686609D01*
X3254538Y2686644D01*
X3254524Y2686672D01*
X3254510Y2686686D01*
Y2686693D01*
X3254440Y2686778D01*
X3254369Y2686848D01*
X3254292Y2686918D01*
X3254207Y2686967D01*
X3254123Y2687017D01*
X3254038Y2687052D01*
X3253870Y2687115D01*
X3253722Y2687143D01*
X3253652Y2687158D01*
X3253595Y2687165D01*
X3253546Y2687172D01*
D02*
G37*
%LPD*%
D16*
X3351165Y2757140D02*
Y2835880D01*
X3280045Y2757140D02*
X3351165D01*
X3280045Y2835880D02*
X3351165D01*
X3280045Y2757140D02*
Y2835880D01*
M02*
